<?xml version="1.0" standalone="no"?>
<!DOCTYPE svg PUBLIC "-//W3C//DTD SVG 1.1//EN" "http://www.w3.org/Graphics/SVG/1.1/DTD/svg11.dtd" >
<svg xmlns="http://www.w3.org/2000/svg">
<metadata></metadata>
<defs>
<font id="quirkoregular" horiz-adv-x="1294" >
<font-face units-per-em="2048" ascent="1637" descent="-411" />
<missing-glyph horiz-adv-x="560" />
<glyph horiz-adv-x="0" />
<glyph horiz-adv-x="682" />
<glyph horiz-adv-x="0" />
<glyph horiz-adv-x="0" />
<glyph unicode="&#xd;" horiz-adv-x="560" />
<glyph unicode=" "  horiz-adv-x="560" />
<glyph unicode="&#x09;" horiz-adv-x="560" />
<glyph unicode="&#xa0;" horiz-adv-x="560" />
<glyph unicode="!" horiz-adv-x="528" d="M48 940q0 38 27 65l39 38q26 26 26 65v275q0 38 27.5 64.5t66.5 26.5h72q38 0 65 -27t27 -64v-886q0 -37 -27 -64.5t-65 -27.5h-72q-39 0 -66.5 27t-27.5 65v275q0 36 -26 65l-39 38q-27 27 -27 65zM140 47q0 -19 14 -33t33 -14h166q18 0 31.5 14t13.5 33v164 q0 19 -13.5 33t-31.5 14h-166q-19 0 -33 -14t-14 -33v-164z" />
<glyph unicode="&#x22;" horiz-adv-x="876" d="M133 1424q-2 20 11.5 35t34.5 15h167q21 0 34.5 -15t10.5 -35l-43 -409q-2 -17 -15.5 -29t-31.5 -12h-79q-16 0 -29 12t-15 29zM486 1424q-3 19 11 34.5t34 15.5h168q20 0 34 -15.5t11 -34.5l-45 -409q-2 -17 -14.5 -29t-30.5 -12h-78q-18 0 -31 12t-16 29z" />
<glyph unicode="#" horiz-adv-x="1577" d="M95 424l21 92q3 16 15.5 26.5t29.5 10.5h220l79 368h-200q-23 0 -37 17t-10 39l21 92q3 16 15 26.5t29 10.5h221l71 331q3 16 15.5 26.5t29.5 10.5h127q22 0 36 -17.5t9 -38.5l-68 -312h296l71 331q3 16 15.5 26.5t29.5 10.5h127q22 0 35.5 -17.5t8.5 -38.5l-65 -312h200 q22 0 36 -17.5t9 -38.5l-19 -91q-5 -17 -17 -27.5t-28 -10.5h-220l-79 -368h200q22 0 36 -17.5t9 -38.5l-19 -92q-3 -16 -15.5 -26.5t-28.5 -10.5h-221l-71 -332q-3 -16 -16 -26t-29 -10h-127q-23 0 -36 17t-9 39l66 312h-294l-71 -332q-5 -16 -17 -26t-28 -10h-127 q-23 0 -36 17t-8 39l65 312h-200q-22 0 -37 17.5t-10 38.5zM604 553h293l78 368h-295z" />
<glyph unicode="$" horiz-adv-x="1210" d="M112 92v128v57q0 37 27 64t65 27h74q38 0 65 -27t27 -64v-57h424q20 0 33.5 14t13.5 33v109l-239 214q-31 28 -68 25l-52 -4q-39 -1 -67 24.5t-30 63.5l-4 54q-3 40 -30 64l-177 160q-62 57 -62 137v175q0 77 54 131t131 54h198v176q0 18 13.5 31.5t31.5 13.5h129 q19 0 33 -13.5t14 -31.5v-176h254q38 0 64.5 -27t26.5 -64v-185q0 -38 -27 -65t-64 -27h-75q-37 0 -64 27t-27 65v56h-387q-19 0 -33 -14t-14 -33v-108l667 -602q62 -57 62 -136v-176q0 -77 -54 -131t-131 -54h-198v-176q0 -18 -14 -31t-33 -13h-129q-18 0 -31.5 13 t-13.5 31v176h-291q-38 0 -65 27t-27 65z" />
<glyph unicode="%" horiz-adv-x="1517" d="M112 891v503q0 33 23.5 56.5t56.5 23.5h286q34 0 58.5 -24t24.5 -56v-503q0 -33 -24.5 -56.5t-58.5 -23.5h-286q-34 0 -57 23t-23 57zM260 944q0 -10 6 -16.5t16 -6.5h109q9 0 15.5 6.5t6.5 16.5v398q0 8 -7 15t-15 7h-109q-9 0 -15.5 -6.5t-6.5 -15.5v-398zM379 64 l591 1382q12 28 43 28h84q24 0 37.5 -20.5t3.5 -42.5l-590 -1383q-12 -28 -42 -28h-84q-25 0 -39 20.5t-4 43.5zM959 80v503q0 34 23 57t57 23h286q34 0 57 -23t23 -57v-503q0 -34 -23 -57t-57 -23h-286q-34 0 -57 23t-23 57zM1106 133q0 -10 6.5 -16.5t14.5 -6.5h110 q9 0 15.5 7t6.5 16v398q0 9 -6.5 15.5t-15.5 6.5h-110q-9 0 -15 -6.5t-6 -15.5v-398z" />
<glyph unicode="&#x26;" horiz-adv-x="1515" d="M131 1276v107q0 37 26.5 64t64.5 27h634q50 0 77.5 -42t6.5 -87l-269 -607v-2l-202 -450q-10 -23 4 -44.5t39 -21.5h105q31 0 43 29l216 487l305 684q11 24 34 39t50 15h64q49 0 76 -42t8 -87l-271 -609l202 -379q25 -46 -2 -91.5t-79 -45.5h-52q-27 0 -50 15.5t-34 41.5 l-96 213l-170 -382q-21 -49 -67 -78.5t-101 -29.5h-332q-66 0 -116 40t-63.5 98t10.5 122l38 84q16 38 2 71l-19 50q-14 35 1.5 70.5t50.5 49.5l51 19q36 15 50 48l39 86l-263 495q-11 20 -11 43zM396 1254l120 -269l119 269h-239z" />
<glyph unicode="'" horiz-adv-x="523" d="M133 1424q-2 20 11.5 35t34.5 15h167q21 0 34.5 -15t10.5 -35l-43 -409q-2 -17 -15.5 -29t-31.5 -12h-79q-16 0 -29 12t-15 29z" />
<glyph unicode="(" horiz-adv-x="786" d="M48 737.5q0 37.5 27 64.5l39 39q26 26 26 65v467q0 27 15 49l189 305q28 43 78 43h225q39 0 66 -27.5t27 -66.5v-35q0 -39 -27 -66.5t-66 -27.5h-156l-93 -147v-1327l93 -146h156q39 0 66 -27.5t27 -65.5v-38q0 -38 -27 -64.5t-66 -26.5h-225q-50 0 -78 43l-189 302 q-15 25 -15 51v467q0 39 -26 65l-39 40q-27 27 -27 64.5z" />
<glyph unicode=")" horiz-adv-x="775" d="M47 -166q0 38 27 65.5t64 27.5h157l92 146v495q0 39 -26 65l-40 40q-27 27 -27 64.5t27 64.5l40 39q26 26 26 65v494l-92 147h-157q-38 0 -64.5 27.5t-26.5 66.5v35q0 39 26.5 66.5t64.5 27.5h226q51 0 79 -43l189 -305q13 -19 13 -49v-1272q0 -29 -13 -51l-189 -302 q-28 -43 -79 -43h-226q-38 0 -64.5 26.5t-26.5 64.5v38z" />
<glyph unicode="*" horiz-adv-x="977" d="M133.5 998.5q2.5 9.5 10.5 14.5l183 93l-183 94q-20 11 -9 31l69 118q5 8 14 10.5t17 -2.5l172 -113l-9 206q-1 10 5.5 17t16.5 7h137q10 0 16 -7t6 -17l-9 -206l172 113q19 12 32 -8l67 -118q5 -8 3 -17.5t-12 -13.5l-182 -94l182 -93q22 -12 9 -32l-67 -118 q-11 -20 -32 -9l-172 112l9 -205q0 -10 -6.5 -17.5t-15.5 -7.5h-137q-10 0 -16.5 7.5t-5.5 17.5l9 205l-172 -112q-21 -12 -31 9l-69 118q-4 8 -1.5 17.5z" />
<glyph unicode="+" horiz-adv-x="1145" d="M131 673v129q0 19 13.5 32.5t33.5 13.5h284v284q0 19 14 33t32 14h129q19 0 33 -13.5t14 -33.5v-284h286q18 0 31.5 -13.5t13.5 -32.5v-129q0 -19 -13.5 -33t-31.5 -14h-286v-286q0 -18 -14 -31.5t-33 -13.5h-129q-18 0 -32 13.5t-14 31.5v286h-284q-20 0 -33.5 14 t-13.5 33z" />
<glyph unicode="," horiz-adv-x="444" d="M93 47v164q0 19 13.5 33t33.5 14h165q19 0 32.5 -13.5t13.5 -33.5v-196q0 -14 -9 -28l-138 -189q-10 -18 -38 -18h-15q-27 0 -40.5 22t-0.5 45l68 153h-38q-20 0 -33.5 14t-13.5 33z" />
<glyph unicode="-" horiz-adv-x="852" d="M131 673v129q0 19 13.5 32.5t33.5 13.5h497q18 0 32 -13.5t14 -32.5v-129q0 -19 -14 -33t-32 -14h-497q-20 0 -33.5 14t-13.5 33z" />
<glyph unicode="." horiz-adv-x="444" d="M93 47v164q0 19 13.5 33t33.5 14h165q19 0 32.5 -13.5t13.5 -33.5v-164q0 -20 -13.5 -33.5t-32.5 -13.5h-165q-20 0 -33.5 14t-13.5 33z" />
<glyph unicode="/" horiz-adv-x="878" d="M50 -235l567 1971q11 34 43 34h125q24 0 37 -18.5t8 -41.5l-567 -1972q-9 -33 -43 -33h-125q-24 0 -38 18.5t-7 41.5z" />
<glyph unicode="0" d="M66 737.5q0 37.5 27 64.5l40 39q26 26 26 65v383q0 77 54 131t131 54h626q77 0 131 -54t54 -131v-1104q0 -77 -54 -131t-131 -54h-626q-77 0 -131 54t-54 131v383q0 39 -26 65l-40 40q-27 27 -27 64.5zM417 267q0 -20 13.5 -33.5t32.5 -13.5h387q20 0 33.5 14t13.5 33 v301q0 40 -28 65l-37 40q-27 27 -27 64.5t27 64.5l37 39q28 25 28 65v301q0 19 -13.5 33t-33.5 14h-387q-19 0 -32.5 -13.5t-13.5 -33.5v-940z" />
<glyph unicode="1" horiz-adv-x="625" d="M79 1152q-27 46 1 92l111 185q27 45 80 45h112q39 0 66 -26.5t27 -64.5v-1291q0 -38 -27 -65t-66 -27h-73q-37 0 -64 27t-27 65v338q0 37 -28 65l-38 39q-28 27 -28 64.5t28 64.5l38 40q28 28 28 65v338h-60q-53 0 -80 46z" />
<glyph unicode="2" horiz-adv-x="1194" d="M86 179q6 48 41 90l228 273q27 34 21 67l-4 54q-3 38 22 67t62 32l52 6q41 3 64 32l232 276v178h-535q-38 0 -65.5 27t-27.5 64v38q0 37 27.5 64t65.5 27h535h72q77 0 131 -54t54 -131v-190q0 -69 -43 -118l-637 -761h589q39 0 66 -26.5t27 -64.5v-37q0 -38 -27 -65 t-66 -27h-721q-72 0 -121 53.5t-42 125.5z" />
<glyph unicode="3" horiz-adv-x="1108" d="M84 92v37q0 37 27 64t65 27h489q18 0 31.5 14t13.5 33v314q0 18 -13.5 31.5t-31.5 13.5h-342q-38 0 -64.5 27t-26.5 66v36q0 39 26.5 66t64.5 27h139q29 0 41 23l207 383h-497q-38 0 -65 27t-27 64v38q0 37 27 64t65 27h579q73 0 124.5 -51t51.5 -124q0 -44 -21 -86 l-200 -365h38q76 0 129.5 -54.5t53.5 -130.5v-478q0 -77 -53.5 -131t-129.5 -54h-609q-38 0 -65 27t-27 65zM314 424l129 -131l131 131l-131 131z" />
<glyph unicode="4" horiz-adv-x="1227" d="M93 460v110q0 22 8 37l121 271q13 32 2 71l-20 51q-13 36 2.5 69.5t51.5 47.5l50 21q16 5 30 18.5t21 30.5l104 233q11 24 34.5 39t50.5 15h63q49 0 76 -42t8 -87l-336 -755h398v240q0 38 26.5 64.5t64.5 26.5h75q38 0 65 -27t27 -64v-240h18q37 0 64.5 -27.5t27.5 -65.5 v-37q0 -38 -27.5 -65t-64.5 -27h-18v-276q0 -38 -27.5 -65t-64.5 -27h-75q-37 0 -64 27t-27 65v276h-572q-37 0 -64.5 27t-27.5 65z" />
<glyph unicode="5" horiz-adv-x="1182" d="M121 92v37q0 37 27 64t65 27h525q20 0 33.5 14t13.5 33v314q0 18 -14 31.5t-33 13.5h-525q-38 0 -65 27t-27 66v111q0 20 8 35l164 389h-80q-38 0 -65 27t-27 64v38q0 37 27 64t65 27h738q38 0 65 -27t27 -64v-38q0 -37 -27 -64t-65 -27h-400l-172 -406h479 q77 0 131 -54.5t54 -130.5v-478q0 -77 -54 -131t-131 -54h-645q-37 0 -64.5 27t-27.5 65zM368 424l131 -131l131 131l-131 131z" />
<glyph unicode="6" horiz-adv-x="1220" d="M66 424q0 38 27 66l40 37q26 26 26 65v215q0 41 19 79l252 536q24 52 82 52h439q39 0 66.5 -26.5t27.5 -64.5v-38q0 -38 -27.5 -64.5t-66.5 -26.5h-336l-191 -406h473q76 0 129.5 -54.5t53.5 -130.5v-478q0 -77 -53.5 -131t-129.5 -54h-553q-77 0 -131 54t-54 131v71 q0 38 -26 64l-40 39q-27 27 -27 65zM417 265q0 -18 13.5 -31.5t31.5 -13.5h317q18 0 30.5 13.5t12.5 31.5v318q0 18 -12.5 30.5t-30.5 12.5h-362v-361z" />
<glyph unicode="7" horiz-adv-x="1089" d="M103 1345v38q0 37 26.5 64t64.5 27h701q38 0 65 -27t27 -64v-90q0 -37 -15 -77l-518 -1162q-24 -54 -84 -54h-67q-50 0 -77.5 42t-6.5 87l181 409q13 33 2 69l-21 51q-13 37 2 71t52 48l51 19q36 15 50 49l182 409h-524q-38 0 -64.5 27t-26.5 64z" />
<glyph unicode="8" d="M66 737.5q0 37.5 27 64.5l40 39q26 26 26 65v383q0 77 54 131t131 54h626q77 0 131 -54t54 -131v-1104q0 -77 -54 -131t-131 -54h-626q-77 0 -131 54t-54 131v383q0 39 -26 65l-40 40q-27 27 -27 64.5zM417 267q0 -20 13.5 -33.5t32.5 -13.5h387q20 0 33.5 14t13.5 33 v359h-480v-359zM417 848h480v359q0 19 -13.5 33t-33.5 14h-387q-19 0 -32.5 -13.5t-13.5 -33.5v-359z" />
<glyph unicode="9" horiz-adv-x="1220" d="M66 1051q0 38 27 65l40 37q26 29 26 65v71q0 77 54 131t131 54h553q76 0 129.5 -54t53.5 -131v-622q0 -41 -17 -78l-252 -537q-11 -24 -34 -38t-50 -14h-439q-38 0 -65 27t-27 65v37q0 37 27 64t65 27h336l191 406h-471q-77 0 -131 54t-54 131v71q0 39 -26 65l-40 38 q-27 28 -27 66zM417 893q0 -18 13.5 -31.5t32.5 -13.5h359v361q0 18 -12.5 31.5t-30.5 13.5h-316q-19 0 -32.5 -13.5t-13.5 -33.5v-314z" />
<glyph unicode=":" horiz-adv-x="444" d="M93 47v164q0 19 13.5 33t33.5 14h165q19 0 32.5 -13.5t13.5 -33.5v-164q0 -20 -13.5 -33.5t-32.5 -13.5h-165q-20 0 -33.5 14t-13.5 33zM93 783v166q0 18 14 31.5t33 13.5h165q19 0 32.5 -13.5t13.5 -31.5v-166q0 -20 -13.5 -33.5t-32.5 -13.5h-165q-20 0 -33.5 14 t-13.5 33z" />
<glyph unicode=";" horiz-adv-x="444" d="M93 47v164q0 19 13.5 33t33.5 14h165q19 0 32.5 -13.5t13.5 -33.5v-196q0 -14 -9 -28l-138 -189q-10 -18 -38 -18h-15q-27 0 -40.5 22t-0.5 45l68 153h-38q-20 0 -33.5 14t-13.5 33zM93 783v166q0 18 14 31.5t33 13.5h165q19 0 32.5 -13.5t13.5 -31.5v-166 q0 -20 -13.5 -33.5t-32.5 -13.5h-165q-20 0 -33.5 14t-13.5 33z" />
<glyph unicode="&#x3c;" horiz-adv-x="1367" d="M131 622v230q0 33 32 43l1012 325q23 7 42.5 -7t19.5 -36v-162q0 -33 -32 -43l-693 -236l693 -233q14 -4 23 -16.5t9 -26.5v-163q0 -22 -19.5 -36t-42.5 -7l-1012 323q-32 12 -32 45z" />
<glyph unicode="=" horiz-adv-x="1145" d="M131 469v129q0 20 13.5 33.5t33.5 13.5h792q18 0 31.5 -14t13.5 -33v-129q0 -18 -13.5 -31.5t-31.5 -13.5h-792q-19 0 -33 13.5t-14 31.5zM131 875v128q0 19 13.5 33t33.5 14h792q18 0 31.5 -14t13.5 -33v-128q0 -18 -13.5 -31.5t-31.5 -13.5h-792q-19 0 -33 13.5 t-14 31.5z" />
<glyph unicode="&#x3e;" horiz-adv-x="1367" d="M131 297v163q0 14 9 26.5t23 16.5l691 233l-691 236q-32 10 -32 43v162q0 23 19 36.5t41 6.5l1014 -325q32 -10 32 -43v-230q0 -33 -32 -45l-1014 -323q-22 -7 -41 6.5t-19 36.5z" />
<glyph unicode="?" horiz-adv-x="979" d="M93 1198v185q0 37 27 64t65 27h499q76 0 129.5 -54t53.5 -131v-112q0 -70 -47 -123l-403 -449v-108q0 -37 -27.5 -64.5t-64.5 -27.5h-73q-39 0 -66 27t-27 65v58q0 72 48 123l88 99q25 28 25 68l-4 52q-1 39 24.5 67t63.5 30l54 4q36 0 63 30l88 99v80q0 19 -13.5 33 t-33.5 14h-248v-56q0 -38 -27 -65t-65 -27h-37q-37 0 -64.5 27t-27.5 65zM159 47q0 -19 13.5 -33t33.5 -14h166q18 0 31.5 14t13.5 33v164q0 19 -13.5 33t-31.5 14h-166q-20 0 -33.5 -14t-13.5 -33v-164z" />
<glyph unicode="A" horiz-adv-x="1235" d="M80 118l131 458q4 13 4 26q0 21 -11 43l-26 48q-12 21 -12 43q0 13 4 26q10 37 43 56l47 27q33 17 45 54l145 508q8 29 32.5 48t55.5 19h159q31 0 55.5 -19t32.5 -48l370 -1289q4 -14 4 -28q-1 -30 -19 -54q-28 -36 -73 -36h-67q-31 0 -55.5 19t-32.5 48l-54 191h-479 l-56 -191q-8 -29 -32.5 -48t-55.5 -19h-67q-45 0 -73 36q-19 25 -19 54q0 14 4 28zM441 478h353l-175 615z" />
<glyph unicode="B" d="M48 737.5q0 37.5 27 64.5l39 39q26 26 26 65v477q0 38 27.5 64.5t66.5 26.5h754q76 0 130.5 -54t54.5 -131v-383q0 -37 -28 -65l-37 -39q-28 -27 -28 -64.5t28 -64.5l37 -40q28 -28 28 -65v-383q0 -77 -54.5 -131t-130.5 -54h-754q-39 0 -66.5 27t-27.5 65v476 q0 39 -26 65l-39 40q-27 27 -27 64.5zM398 220h471q18 0 31.5 14t13.5 33v314q0 18 -13.5 31.5t-31.5 13.5h-471v-406zM398 848h471q18 0 31.5 13.5t13.5 31.5v314q0 19 -13.5 33t-31.5 14h-471v-406zM527 424l129 131l131 -131l-131 -131zM527 1046l129 131l131 -131 l-131 -129z" />
<glyph unicode="C" horiz-adv-x="1248" d="M48 737.5q0 37.5 27 64.5l39 39q26 26 26 65v383q0 77 54 131t131 54h718q39 0 66 -26.5t27 -64.5v-258q0 -39 -27 -66.5t-66 -27.5h-73q-38 0 -65 27.5t-27 66.5v129h-433q-19 0 -33 -14t-14 -33v-940q0 -19 14 -33t33 -14h433v129q0 39 27 66.5t65 27.5h73 q39 0 66 -27.5t27 -66.5v-257q0 -38 -27 -65t-66 -27h-718q-77 0 -131 54t-54 131v383q0 39 -26 65l-39 40q-27 27 -27 64.5z" />
<glyph unicode="D" d="M48 737.5q0 37.5 27 64.5l39 39q26 26 26 65v477q0 38 27.5 64.5t66.5 26.5h754q76 0 130.5 -54t54.5 -131v-1104q0 -77 -54.5 -131t-130.5 -54h-754q-39 0 -66.5 27t-27.5 65v476q0 39 -26 65l-39 40q-27 27 -27 64.5zM398 220h471q18 0 31.5 14t13.5 33v301 q0 39 -26 65l-38 40q-28 27 -28 64.5t28 64.5l38 39q26 26 26 65v301q0 19 -13.5 33t-31.5 14h-471v-1034z" />
<glyph unicode="E" horiz-adv-x="1182" d="M48 737.5q0 37.5 27 64.5l39 39q26 26 26 65v348v129q0 38 27.5 64.5t66.5 26.5h164h609q38 0 65 -27t27 -64v-38q0 -37 -27 -64t-65 -27h-609v-406h534q39 0 66.5 -27t27.5 -66v-36q0 -39 -27.5 -66t-66.5 -27h-534v-406h609q38 0 65 -27t27 -64v-37q0 -38 -27.5 -65 t-64.5 -27h-701h-72q-39 0 -66.5 27t-27.5 65v128v348q0 39 -26 65l-39 40q-27 27 -27 64.5z" />
<glyph unicode="F" horiz-adv-x="1173" d="M48 737.5q0 37.5 27 64.5l39 39q26 26 26 65v348v129q0 38 27.5 64.5t66.5 26.5h164h609q38 0 65 -27t27 -64v-38q0 -37 -27 -64t-65 -27h-609v-406h534q39 0 66.5 -27t27.5 -66v-36q0 -39 -27.5 -66t-66.5 -27h-534v-534q0 -38 -27 -65t-65 -27h-72q-39 0 -66.5 27 t-27.5 65v476q0 39 -26 65l-39 40q-27 27 -27 64.5z" />
<glyph unicode="G" horiz-adv-x="1266" d="M48 737.5q0 37.5 27 64.5l39 39q26 26 26 65v383q0 77 54 131t131 54h718q39 0 66 -26.5t27 -64.5v-258q0 -39 -27 -66.5t-66 -27.5h-73q-38 0 -65 27.5t-27 66.5v129h-433q-19 0 -33 -14t-14 -33v-940q0 -19 14 -33t33 -14h433v296h-93q-38 0 -65 27t-27 64v38 q0 37 27 64t65 27h93h165q39 0 66 -26.5t27 -64.5v-553q0 -38 -27 -65t-66 -27h-718q-77 0 -131 54t-54 131v383q0 39 -26 65l-39 40q-27 27 -27 64.5z" />
<glyph unicode="H" horiz-adv-x="1304" d="M48 737.5q0 37.5 27 64.5l39 39q26 26 26 65v477q0 38 27.5 64.5t66.5 26.5h72q38 0 65 -27t27 -64v-535h516v535q0 37 27.5 64t65.5 27h73q38 0 65.5 -27t27.5 -64v-535v-222v-534q0 -37 -27.5 -64.5t-65.5 -27.5h-73q-38 0 -65.5 27.5t-27.5 64.5v534h-516v-534 q0 -38 -27 -65t-65 -27h-72q-39 0 -66.5 27t-27.5 65v476q0 39 -26 65l-39 40q-27 27 -27 64.5z" />
<glyph unicode="I" horiz-adv-x="528" d="M48 737.5q0 37.5 27 64.5l39 39q26 26 26 65v477q0 38 27.5 64.5t66.5 26.5h72q38 0 65 -27t27 -64v-1291q0 -38 -27 -65t-65 -27h-72q-39 0 -66.5 27t-27.5 65v476q0 39 -26 65l-39 40q-27 27 -27 64.5z" />
<glyph unicode="J" horiz-adv-x="1035" d="M93 92v257q0 39 27 66.5t65 27.5h75q38 0 64.5 -27.5t26.5 -66.5v-129h249q20 0 33.5 14t13.5 33v301q0 40 -28 65l-38 40q-27 27 -27 64.5t27 64.5l38 39q28 25 28 65v477q0 37 26.5 64t64.5 27h75q37 0 64 -27t27 -64v-1291q0 -38 -27 -65t-64 -27h-628q-37 0 -64.5 27 t-27.5 65z" />
<glyph unicode="K" horiz-adv-x="1205" d="M48 737.5q0 37.5 27 64.5l39 39q26 26 26 65v477q0 38 27.5 64.5t66.5 26.5h72q38 0 65 -27t27 -64v-645l508 699q29 37 73 37h49q58 0 83 -50q11 -21 11 -41q0 -28 -20 -54l-427 -593l427 -590q20 -26 20 -54q0 -20 -11 -42q-25 -50 -83 -50h-49q-44 0 -73 37l-370 511 l-138 -189v-267q0 -38 -27 -65t-65 -27h-72q-39 0 -66.5 27t-27.5 65v476q0 39 -26 65l-39 40q-27 27 -27 64.5z" />
<glyph unicode="L" horiz-adv-x="1081" d="M48 737.5q0 37.5 27 64.5l39 39q26 26 26 65v477q0 38 27.5 64.5t66.5 26.5h72q38 0 65 -27t27 -64v-1163h534q39 0 66.5 -26.5t27.5 -64.5v-37q0 -38 -27.5 -65t-66.5 -27h-626h-72q-39 0 -66.5 27t-27.5 65v128v348q0 39 -26 65l-39 40q-27 27 -27 64.5z" />
<glyph unicode="M" horiz-adv-x="1597" d="M48 737.5q0 37.5 27 64.5l39 39q26 26 26 65v477q0 38 27.5 64.5t66.5 26.5h160q27 0 50 -15t34 -39l326 -732l327 732q11 24 34 39t50 15h160q38 0 65 -27t27 -64v-1291q0 -38 -27.5 -65t-64.5 -27h-73q-39 0 -66 27t-27 65v926l-252 -566q-24 -54 -84 -54h-139 q-60 0 -84 54l-252 566v-926q0 -38 -27 -65t-65 -27h-72q-39 0 -66.5 27t-27.5 65v476q0 39 -26 65l-39 40q-27 27 -27 64.5z" />
<glyph unicode="N" horiz-adv-x="1377" d="M48 737.5q0 37.5 27 64.5l39 39q26 26 26 65v477q0 38 27.5 64.5t66.5 26.5h164q55 0 82 -50l508 -992v951q0 37 27 64t65 27h75q37 0 64 -27t27 -64v-1291q0 -38 -27 -65t-64 -27h-167q-57 0 -80 50l-510 993v-951q0 -38 -27 -65t-65 -27h-72q-39 0 -66.5 27t-27.5 65 v476q0 39 -26 65l-39 40q-27 27 -27 64.5z" />
<glyph unicode="O" d="M48 737.5q0 37.5 27 64.5l39 39q26 26 26 65v383q0 77 54 131t131 54h663q76 0 130.5 -54t54.5 -131v-1104q0 -77 -54.5 -131t-130.5 -54h-663q-77 0 -131 54t-54 131v383q0 39 -26 65l-39 40q-27 27 -27 64.5zM398 267q0 -19 14 -33t33 -14h424q18 0 31.5 14t13.5 33 v301q0 39 -26 65l-38 40q-28 27 -28 64.5t28 64.5l38 39q26 26 26 65v301q0 19 -13.5 33t-31.5 14h-424q-19 0 -33 -14t-14 -33v-940zM480 736l131 131l129 -131l-129 -129z" />
<glyph unicode="P" horiz-adv-x="1220" d="M48 737.5q0 37.5 27 64.5l39 39q26 26 26 65v477q0 38 27.5 64.5t66.5 26.5h680q77 0 131 -54t54 -131v-478q0 -77 -54 -131t-131 -54h-516v-534q0 -38 -27 -65t-65 -27h-72q-39 0 -66.5 27t-27.5 65v476q0 39 -26 65l-39 40q-27 27 -27 64.5zM398 848h396q19 0 33 13.5 t14 31.5v314q0 19 -13.5 33t-33.5 14h-396v-406z" />
<glyph unicode="Q" horiz-adv-x="1293" d="M48 737.5q0 37.5 27 64.5l39 39q26 26 26 65v383q0 77 54 131t131 54h663q76 0 130.5 -54t54.5 -131v-1104q0 -77 -54.5 -131t-130.5 -54h-663q-77 0 -131 54t-54 131v383q0 39 -26 65l-39 40q-27 27 -27 64.5zM398 267q0 -19 14 -33t33 -14h424q18 0 31.5 14t13.5 33 v301q0 39 -26 65l-38 40q-28 27 -28 64.5t28 64.5l38 39q26 26 26 65v301q0 19 -13.5 33t-31.5 14h-424q-19 0 -33 -14t-14 -33v-940zM480 736l131 131l129 -131l-129 -129zM656 -239q0 38 27 64.5t66 26.5h774q37 0 64 -27t27 -64v-38q0 -37 -27 -64t-64 -27h-774 q-39 0 -66 26.5t-27 64.5v38z" />
<glyph unicode="R" horiz-adv-x="1253" d="M48 737.5q0 37.5 27 64.5l39 39q26 26 26 65v477q0 38 27.5 64.5t66.5 26.5h680q77 0 131 -54t54 -131v-478q0 -77 -54 -131t-131 -54h-54l285 -488q14 -24 14 -47q-1 -22 -13 -45q-26 -46 -79 -46h-64q-51 0 -78 45l-342 581h-185v-534q0 -38 -27 -65t-65 -27h-72 q-39 0 -66.5 27t-27.5 65v476q0 39 -26 65l-39 40q-27 27 -27 64.5zM398 848h396q19 0 33 13.5t14 31.5v314q0 19 -13.5 33t-33.5 14h-396v-406z" />
<glyph unicode="S" horiz-adv-x="1210" d="M112 92v128v57q0 37 27 64t65 27h74q38 0 65 -27t27 -64v-57h424q20 0 33.5 14t13.5 33v109l-239 214q-28 25 -61 25h-7l-52 -4h-3q-37 1 -64 25q-28 26 -30 63l-4 54q-3 40 -30 64l-177 160q-62 57 -62 137v175q0 77 54 131t131 54h73h471h129q38 0 64.5 -27t26.5 -64 v-185q0 -38 -27 -65t-64 -27h-75q-37 0 -64 27t-27 65v56h-387q-19 0 -33 -14t-14 -33v-108l667 -602q62 -57 62 -136v-176q0 -77 -54 -131t-131 -54h-581h-129q-38 0 -65 27t-27 65z" />
<glyph unicode="T" horiz-adv-x="1078" d="M60 1345v38q0 37 27 64t64 27h352h73h349q39 0 66 -26.5t27 -64.5v-38q0 -38 -27 -64.5t-66 -26.5h-258v-1162q0 -38 -27 -65t-64 -27h-73q-39 0 -66.5 27t-27.5 65v476q0 42 -28 67l-37 38q-27 27 -27 64.5t27 64.5l37 37q28 25 28 65v350h-258q-37 0 -64 27t-27 64z " />
<glyph unicode="U" d="M48 737.5q0 37.5 27 64.5l39 39q26 26 26 65v477q0 38 27.5 64.5t66.5 26.5h72q38 0 65 -27t27 -64v-1116q0 -19 14 -33t33 -14h424q18 0 31.5 14t13.5 33v301q0 39 -26 65l-38 40q-28 27 -28 64.5t28 64.5l38 39q26 26 26 65v477q0 37 27.5 64t65.5 27h73q38 0 65.5 -27 t27.5 -64v-1198q0 -77 -54.5 -131t-130.5 -54h-663q-77 0 -131 54t-54 131v383q0 39 -26 65l-39 40q-27 27 -27 64.5z" />
<glyph unicode="V" horiz-adv-x="1235" d="M80 1357q-4 14 -4 28q0 29 19 53q28 36 73 36h67q31 0 55.5 -19t32.5 -48l296 -1026l293 1026q8 29 32.5 48t55.5 19h67q47 0 74 -36q18 -24 18 -53q0 -14 -4 -28l-370 -1290q-8 -29 -32.5 -48t-55.5 -19h-159q-31 0 -55.5 19t-32.5 48l-145 509q-12 37 -45 54l-47 26 q-33 19 -43 56q-4 13 -4 26q0 23 12 43l26 49q11 21 11 43q0 13 -4 26z" />
<glyph unicode="W" horiz-adv-x="2046" d="M80 1357q-4 14 -4 28q0 29 19 53q28 36 73 36h67q31 0 55.5 -19t32.5 -48l297 -1033l256 1031q8 30 33 49.5t57 19.5h114q32 0 57 -19.5t33 -49.5l256 -1031l297 1033q8 29 32.5 48t55.5 19h67q47 0 74 -36q18 -24 18 -53q0 -14 -4 -28l-370 -1290q-8 -29 -32.5 -48 t-55.5 -19h-174q-33 0 -58 19t-32 50l-220 888l-222 -888q-7 -31 -32 -50t-58 -19h-174q-31 0 -55.5 19t-32.5 48l-145 509q-12 37 -45 54l-47 26q-33 19 -43 56q-4 13 -4 26q0 23 12 43l26 49q11 21 11 43q0 13 -4 26z" />
<glyph unicode="X" horiz-adv-x="1222" d="M98 1426q26 48 80 48h59q51 0 79 -43l295 -472l295 472q28 43 79 43h58q55 0 81 -48q12 -23 12 -45q0 -25 -15 -49l-372 -596l372 -596q15 -24 15 -48q0 -22 -12 -44q-26 -48 -81 -48h-58q-51 0 -79 43l-295 473l-295 -473q-28 -43 -79 -43h-59q-54 0 -80 48 q-13 23 -12 44q0 24 15 48l80 131q15 24 15 51q0 10 -2 20l-13 52q-2 11 -2 21q0 26 14 49q20 33 57 41l53 11q39 10 58 41l112 179l-372 596q-15 24 -15 49q0 22 12 45z" />
<glyph unicode="Y" horiz-adv-x="1222" d="M80 1336q-12 22 -12 44q0 24 14 48q27 46 79 46h65q53 0 80 -48l305 -551l306 551q24 48 81 48h63q53 0 81 -46q13 -23 13 -46t-13 -46l-402 -710v-534q0 -38 -27 -65t-65 -27h-72q-39 0 -66.5 27t-27.5 65v52q0 39 -26 65l-39 40q-27 27 -27 64t27 64l39 40q26 26 26 65 v144z" />
<glyph unicode="Z" horiz-adv-x="1218" d="M84 166q0 56 32 99l245 335q16 26 16 53q0 8 -1 16l-8 54q-1 7 -1 14q1 30 19 55q22 31 59 36l52 9q39 6 62 36l274 381h-528q-38 0 -65 27t-27 64v38q0 37 27 64t65 27h663q69 0 117.5 -48.5t48.5 -117.5q0 -56 -32 -99l-717 -989h658q37 0 64 -27t27 -64v-37 q0 -38 -27 -65t-64 -27h-793q-69 0 -117.5 48.5t-48.5 117.5z" />
<glyph unicode="[" horiz-adv-x="702" d="M48 737.5q0 37.5 27 64.5l39 39q26 26 26 65v770q0 39 27.5 66.5t66.5 27.5h330q38 0 65 -27.5t27 -66.5v-35q0 -39 -27 -66.5t-65 -27.5h-166v-1620h166q37 0 64.5 -27.5t27.5 -65.5v-38q0 -37 -27 -64t-65 -27h-330q-39 0 -66.5 26.5t-27.5 64.5v772q0 39 -26 65 l-39 40q-27 27 -27 64.5z" />
<glyph unicode="\" horiz-adv-x="878" d="M50 1710q-7 23 7 41.5t38 18.5h125q32 0 43 -34l567 -1971q5 -23 -8 -41.5t-37 -18.5h-125q-34 0 -43 33z" />
<glyph unicode="]" horiz-adv-x="693" d="M47 -166q0 38 27 65.5t64 27.5h167v641q0 38 -27 65l-39 40q-27 27 -27 64.5t27 64.5l39 39q27 27 27 65v641h-167q-38 0 -64.5 27.5t-26.5 66.5v35q0 39 26.5 66.5t64.5 27.5h333q38 0 64.5 -27.5t26.5 -66.5v-1880q0 -38 -27 -64.5t-64 -26.5h-333q-38 0 -64.5 26.5 t-26.5 64.5v38z" />
<glyph unicode="_" horiz-adv-x="1220" d="M131 -120q0 18 14 32.5t33 14.5h865q19 0 32.5 -14.5t13.5 -32.5v-91q0 -20 -13.5 -33.5t-32.5 -13.5h-865q-20 0 -33.5 14t-13.5 33v91z" />
<glyph unicode="a" horiz-adv-x="1235" d="M80 118l131 458q4 13 4 26q0 21 -11 43l-26 48q-12 21 -12 43q0 13 4 26q10 37 43 56l47 27q33 17 45 54l145 508q8 29 32.5 48t55.5 19h159q31 0 55.5 -19t32.5 -48l370 -1289q4 -14 4 -28q-1 -30 -19 -54q-28 -36 -73 -36h-67q-31 0 -55.5 19t-32.5 48l-54 191h-479 l-56 -191q-8 -29 -32.5 -48t-55.5 -19h-67q-45 0 -73 36q-19 25 -19 54q0 14 4 28zM441 478h353l-175 615z" />
<glyph unicode="b" d="M48 737.5q0 37.5 27 64.5l39 39q26 26 26 65v477q0 38 27.5 64.5t66.5 26.5h754q76 0 130.5 -54t54.5 -131v-383q0 -37 -28 -65l-37 -39q-28 -27 -28 -64.5t28 -64.5l37 -40q28 -28 28 -65v-383q0 -77 -54.5 -131t-130.5 -54h-754q-39 0 -66.5 27t-27.5 65v476 q0 39 -26 65l-39 40q-27 27 -27 64.5zM398 220h471q18 0 31.5 14t13.5 33v314q0 18 -13.5 31.5t-31.5 13.5h-471v-406zM398 848h471q18 0 31.5 13.5t13.5 31.5v314q0 19 -13.5 33t-31.5 14h-471v-406zM527 424l129 131l131 -131l-131 -131zM527 1046l129 131l131 -131 l-131 -129z" />
<glyph unicode="c" horiz-adv-x="1248" d="M48 737.5q0 37.5 27 64.5l39 39q26 26 26 65v383q0 77 54 131t131 54h718q39 0 66 -26.5t27 -64.5v-258q0 -39 -27 -66.5t-66 -27.5h-73q-38 0 -65 27.5t-27 66.5v129h-433q-19 0 -33 -14t-14 -33v-940q0 -19 14 -33t33 -14h433v129q0 39 27 66.5t65 27.5h73 q39 0 66 -27.5t27 -66.5v-257q0 -38 -27 -65t-66 -27h-718q-77 0 -131 54t-54 131v383q0 39 -26 65l-39 40q-27 27 -27 64.5z" />
<glyph unicode="d" d="M48 737.5q0 37.5 27 64.5l39 39q26 26 26 65v477q0 38 27.5 64.5t66.5 26.5h754q76 0 130.5 -54t54.5 -131v-1104q0 -77 -54.5 -131t-130.5 -54h-754q-39 0 -66.5 27t-27.5 65v476q0 39 -26 65l-39 40q-27 27 -27 64.5zM398 220h471q18 0 31.5 14t13.5 33v301 q0 39 -26 65l-38 40q-28 27 -28 64.5t28 64.5l38 39q26 26 26 65v301q0 19 -13.5 33t-31.5 14h-471v-1034z" />
<glyph unicode="e" horiz-adv-x="1182" d="M48 737.5q0 37.5 27 64.5l39 39q26 26 26 65v348v129q0 38 27.5 64.5t66.5 26.5h164h609q38 0 65 -27t27 -64v-38q0 -37 -27 -64t-65 -27h-609v-406h534q39 0 66.5 -27t27.5 -66v-36q0 -39 -27.5 -66t-66.5 -27h-534v-406h609q38 0 65 -27t27 -64v-37q0 -38 -27.5 -65 t-64.5 -27h-701h-72q-39 0 -66.5 27t-27.5 65v128v348q0 39 -26 65l-39 40q-27 27 -27 64.5z" />
<glyph unicode="f" horiz-adv-x="1173" d="M48 737.5q0 37.5 27 64.5l39 39q26 26 26 65v348v129q0 38 27.5 64.5t66.5 26.5h164h609q38 0 65 -27t27 -64v-38q0 -37 -27 -64t-65 -27h-609v-406h534q39 0 66.5 -27t27.5 -66v-36q0 -39 -27.5 -66t-66.5 -27h-534v-534q0 -38 -27 -65t-65 -27h-72q-39 0 -66.5 27 t-27.5 65v476q0 39 -26 65l-39 40q-27 27 -27 64.5z" />
<glyph unicode="g" horiz-adv-x="1266" d="M48 737.5q0 37.5 27 64.5l39 39q26 26 26 65v383q0 77 54 131t131 54h718q39 0 66 -26.5t27 -64.5v-258q0 -39 -27 -66.5t-66 -27.5h-73q-38 0 -65 27.5t-27 66.5v129h-433q-19 0 -33 -14t-14 -33v-940q0 -19 14 -33t33 -14h433v296h-93q-38 0 -65 27t-27 64v38 q0 37 27 64t65 27h93h165q39 0 66 -26.5t27 -64.5v-553q0 -38 -27 -65t-66 -27h-718q-77 0 -131 54t-54 131v383q0 39 -26 65l-39 40q-27 27 -27 64.5z" />
<glyph unicode="h" horiz-adv-x="1304" d="M48 737.5q0 37.5 27 64.5l39 39q26 26 26 65v477q0 38 27.5 64.5t66.5 26.5h72q38 0 65 -27t27 -64v-535h516v535q0 37 27.5 64t65.5 27h73q38 0 65.5 -27t27.5 -64v-535v-222v-534q0 -37 -27.5 -64.5t-65.5 -27.5h-73q-38 0 -65.5 27.5t-27.5 64.5v534h-516v-534 q0 -38 -27 -65t-65 -27h-72q-39 0 -66.5 27t-27.5 65v476q0 39 -26 65l-39 40q-27 27 -27 64.5z" />
<glyph unicode="i" horiz-adv-x="528" d="M48 737.5q0 37.5 27 64.5l39 39q26 26 26 65v477q0 38 27.5 64.5t66.5 26.5h72q38 0 65 -27t27 -64v-1291q0 -38 -27 -65t-65 -27h-72q-39 0 -66.5 27t-27.5 65v476q0 39 -26 65l-39 40q-27 27 -27 64.5z" />
<glyph unicode="j" horiz-adv-x="1035" d="M93 92v257q0 39 27 66.5t65 27.5h75q38 0 64.5 -27.5t26.5 -66.5v-129h249q20 0 33.5 14t13.5 33v301q0 40 -28 65l-38 40q-27 27 -27 64.5t27 64.5l38 39q28 25 28 65v477q0 37 26.5 64t64.5 27h75q37 0 64 -27t27 -64v-1291q0 -38 -27 -65t-64 -27h-628q-37 0 -64.5 27 t-27.5 65z" />
<glyph unicode="k" horiz-adv-x="1205" d="M48 737.5q0 37.5 27 64.5l39 39q26 26 26 65v477q0 38 27.5 64.5t66.5 26.5h72q38 0 65 -27t27 -64v-645l508 699q29 37 73 37h49q58 0 83 -50q11 -21 11 -41q0 -28 -20 -54l-427 -593l427 -590q20 -26 20 -54q0 -20 -11 -42q-25 -50 -83 -50h-49q-44 0 -73 37l-370 511 l-138 -189v-267q0 -38 -27 -65t-65 -27h-72q-39 0 -66.5 27t-27.5 65v476q0 39 -26 65l-39 40q-27 27 -27 64.5z" />
<glyph unicode="l" horiz-adv-x="1081" d="M48 737.5q0 37.5 27 64.5l39 39q26 26 26 65v477q0 38 27.5 64.5t66.5 26.5h72q38 0 65 -27t27 -64v-1163h534q39 0 66.5 -26.5t27.5 -64.5v-37q0 -38 -27.5 -65t-66.5 -27h-626h-72q-39 0 -66.5 27t-27.5 65v128v348q0 39 -26 65l-39 40q-27 27 -27 64.5z" />
<glyph unicode="m" horiz-adv-x="1597" d="M48 737.5q0 37.5 27 64.5l39 39q26 26 26 65v477q0 38 27.5 64.5t66.5 26.5h160q27 0 50 -15t34 -39l326 -732l327 732q11 24 34 39t50 15h160q38 0 65 -27t27 -64v-1291q0 -38 -27.5 -65t-64.5 -27h-73q-39 0 -66 27t-27 65v926l-252 -566q-24 -54 -84 -54h-139 q-60 0 -84 54l-252 566v-926q0 -38 -27 -65t-65 -27h-72q-39 0 -66.5 27t-27.5 65v476q0 39 -26 65l-39 40q-27 27 -27 64.5z" />
<glyph unicode="n" horiz-adv-x="1377" d="M48 737.5q0 37.5 27 64.5l39 39q26 26 26 65v477q0 38 27.5 64.5t66.5 26.5h164q55 0 82 -50l508 -992v951q0 37 27 64t65 27h75q37 0 64 -27t27 -64v-1291q0 -38 -27 -65t-64 -27h-167q-57 0 -80 50l-510 993v-951q0 -38 -27 -65t-65 -27h-72q-39 0 -66.5 27t-27.5 65 v476q0 39 -26 65l-39 40q-27 27 -27 64.5z" />
<glyph unicode="o" d="M48 737.5q0 37.5 27 64.5l39 39q26 26 26 65v383q0 77 54 131t131 54h663q76 0 130.5 -54t54.5 -131v-1104q0 -77 -54.5 -131t-130.5 -54h-663q-77 0 -131 54t-54 131v383q0 39 -26 65l-39 40q-27 27 -27 64.5zM398 267q0 -19 14 -33t33 -14h424q18 0 31.5 14t13.5 33 v301q0 39 -26 65l-38 40q-28 27 -28 64.5t28 64.5l38 39q26 26 26 65v301q0 19 -13.5 33t-31.5 14h-424q-19 0 -33 -14t-14 -33v-940zM480 736l131 131l129 -131l-129 -129z" />
<glyph unicode="p" horiz-adv-x="1220" d="M48 737.5q0 37.5 27 64.5l39 39q26 26 26 65v477q0 38 27.5 64.5t66.5 26.5h680q77 0 131 -54t54 -131v-478q0 -77 -54 -131t-131 -54h-516v-534q0 -38 -27 -65t-65 -27h-72q-39 0 -66.5 27t-27.5 65v476q0 39 -26 65l-39 40q-27 27 -27 64.5zM398 848h396q19 0 33 13.5 t14 31.5v314q0 19 -13.5 33t-33.5 14h-396v-406z" />
<glyph unicode="q" horiz-adv-x="1293" d="M48 737.5q0 37.5 27 64.5l39 39q26 26 26 65v383q0 77 54 131t131 54h663q76 0 130.5 -54t54.5 -131v-1104q0 -77 -54.5 -131t-130.5 -54h-663q-77 0 -131 54t-54 131v383q0 39 -26 65l-39 40q-27 27 -27 64.5zM398 267q0 -19 14 -33t33 -14h424q18 0 31.5 14t13.5 33 v301q0 39 -26 65l-38 40q-28 27 -28 64.5t28 64.5l38 39q26 26 26 65v301q0 19 -13.5 33t-31.5 14h-424q-19 0 -33 -14t-14 -33v-940zM480 736l131 131l129 -131l-129 -129zM656 -239q0 38 27 64.5t66 26.5h774q37 0 64 -27t27 -64v-38q0 -37 -27 -64t-64 -27h-774 q-39 0 -66 26.5t-27 64.5v38z" />
<glyph unicode="r" horiz-adv-x="1244" d="M48 737.5q0 37.5 27 64.5l39 39q26 26 26 65v477q0 38 27.5 64.5t66.5 26.5h680q77 0 131 -54t54 -131v-478q0 -77 -54 -131t-131 -54h-54l285 -488q14 -24 14 -47q-1 -22 -13 -45q-26 -46 -79 -46h-64q-51 0 -78 45l-342 581h-185v-534q0 -38 -27 -65t-65 -27h-72 q-39 0 -66.5 27t-27.5 65v476q0 39 -26 65l-39 40q-27 27 -27 64.5zM398 848h396q19 0 33 13.5t14 31.5v314q0 19 -13.5 33t-33.5 14h-396v-406z" />
<glyph unicode="s" horiz-adv-x="1210" d="M112 92v128v57q0 37 27 64t65 27h74q38 0 65 -27t27 -64v-57h424q20 0 33.5 14t13.5 33v109l-239 214q-28 25 -61 25h-7l-52 -4h-3q-37 1 -64 25q-28 26 -30 63l-4 54q-3 40 -30 64l-177 160q-62 57 -62 137v175q0 77 54 131t131 54h73h471h129q38 0 64.5 -27t26.5 -64 v-185q0 -38 -27 -65t-64 -27h-75q-37 0 -64 27t-27 65v56h-387q-19 0 -33 -14t-14 -33v-108l667 -602q62 -57 62 -136v-176q0 -77 -54 -131t-131 -54h-581h-129q-38 0 -65 27t-27 65z" />
<glyph unicode="t" horiz-adv-x="1078" d="M60 1345v38q0 37 27 64t64 27h352h73h349q39 0 66 -26.5t27 -64.5v-38q0 -38 -27 -64.5t-66 -26.5h-258v-1162q0 -38 -27 -65t-64 -27h-73q-39 0 -66.5 27t-27.5 65v476q0 42 -28 67l-37 38q-27 27 -27 64.5t27 64.5l37 37q28 25 28 65v350h-258q-37 0 -64 27t-27 64z " />
<glyph unicode="u" d="M48 737.5q0 37.5 27 64.5l39 39q26 26 26 65v477q0 38 27.5 64.5t66.5 26.5h72q38 0 65 -27t27 -64v-1116q0 -19 14 -33t33 -14h424q18 0 31.5 14t13.5 33v301q0 39 -26 65l-38 40q-28 27 -28 64.5t28 64.5l38 39q26 26 26 65v477q0 37 27.5 64t65.5 27h73q38 0 65.5 -27 t27.5 -64v-1198q0 -77 -54.5 -131t-130.5 -54h-663q-77 0 -131 54t-54 131v383q0 39 -26 65l-39 40q-27 27 -27 64.5z" />
<glyph unicode="v" horiz-adv-x="1235" d="M80 1357q-4 14 -4 28q0 29 19 53q28 36 73 36h67q31 0 55.5 -19t32.5 -48l296 -1026l293 1026q8 29 32.5 48t55.5 19h67q47 0 74 -36q18 -24 18 -53q0 -14 -4 -28l-370 -1290q-8 -29 -32.5 -48t-55.5 -19h-159q-31 0 -55.5 19t-32.5 48l-145 509q-12 37 -45 54l-47 26 q-33 19 -43 56q-4 13 -4 26q0 23 12 43l26 49q11 21 11 43q0 13 -4 26z" />
<glyph unicode="w" horiz-adv-x="2046" d="M80 1357q-4 14 -4 28q0 29 19 53q28 36 73 36h67q31 0 55.5 -19t32.5 -48l297 -1033l256 1031q8 30 33 49.5t57 19.5h114q32 0 57 -19.5t33 -49.5l256 -1031l297 1033q8 29 32.5 48t55.5 19h67q47 0 74 -36q18 -24 18 -53q0 -14 -4 -28l-370 -1290q-8 -29 -32.5 -48 t-55.5 -19h-174q-33 0 -58 19t-32 50l-220 888l-222 -888q-7 -31 -32 -50t-58 -19h-174q-31 0 -55.5 19t-32.5 48l-145 509q-12 37 -45 54l-47 26q-33 19 -43 56q-4 13 -4 26q0 23 12 43l26 49q11 21 11 43q0 13 -4 26z" />
<glyph unicode="x" horiz-adv-x="1222" d="M98 1426q26 48 80 48h59q51 0 79 -43l295 -472l295 472q28 43 79 43h58q55 0 81 -48q12 -23 12 -45q0 -25 -15 -49l-372 -596l372 -596q15 -24 15 -48q0 -22 -12 -44q-26 -48 -81 -48h-58q-51 0 -79 43l-295 473l-295 -473q-28 -43 -79 -43h-59q-54 0 -80 48 q-13 23 -12 44q0 24 15 48l80 131q15 24 15 51q0 10 -2 20l-13 52q-2 11 -2 21q0 26 14 49q20 33 57 41l53 11q39 10 58 41l112 179l-372 596q-15 24 -15 49q0 22 12 45z" />
<glyph unicode="y" horiz-adv-x="1222" d="M80 1336q-12 22 -12 44q0 24 14 48q27 46 79 46h65q53 0 80 -48l305 -551l306 551q24 48 81 48h63q53 0 81 -46q13 -23 13 -46t-13 -46l-402 -710v-534q0 -38 -27 -65t-65 -27h-72q-39 0 -66.5 27t-27.5 65v52q0 39 -26 65l-39 40q-27 27 -27 64t27 64l39 40q26 26 26 65 v144z" />
<glyph unicode="z" horiz-adv-x="1218" d="M84 166q0 56 32 99l245 335q16 26 16 53q0 8 -1 16l-8 54q-1 7 -1 14q1 30 19 55q22 31 59 36l52 9q39 6 62 36l274 381h-528q-38 0 -65 27t-27 64v38q0 37 27 64t65 27h663q69 0 117.5 -48.5t48.5 -117.5q0 -56 -32 -99l-717 -989h658q37 0 64 -27t27 -64v-37 q0 -38 -27 -65t-64 -27h-793q-69 0 -117.5 48.5t-48.5 117.5z" />
<glyph unicode="{" horiz-adv-x="702" d="M48 737.5q0 37.5 27 64.5l39 39q26 26 26 65v770q0 39 27.5 66.5t66.5 27.5h330q38 0 65 -27.5t27 -66.5v-35q0 -39 -27 -66.5t-65 -27.5h-166v-426v-215q0 -39 -26 -65l-39 -39q-27 -27 -27 -64.5t27 -64.5l39 -40q26 -26 26 -65v-217v-424h166q37 0 64.5 -27.5 t27.5 -65.5v-38q0 -37 -27 -64t-65 -27h-330q-39 0 -66.5 26.5t-27.5 64.5v772q0 39 -26 65l-39 40q-27 27 -27 64.5z" />
<glyph unicode="|" horiz-adv-x="444" d="M112 -249v1972q0 19 14 33t33 14h129q18 0 31.5 -14t13.5 -33v-1972q0 -19 -13.5 -32.5t-31.5 -13.5h-129q-20 0 -33.5 13.5t-13.5 32.5z" />
<glyph unicode="}" horiz-adv-x="693" d="M47 -166q0 38 27 65.5t64 27.5h167v641q0 38 -27 65l-39 40q-27 27 -27 64.5t27 64.5l39 39q27 27 27 65v641h-167q-38 0 -64.5 27.5t-26.5 66.5v35q0 39 26.5 66.5t64.5 27.5h333q38 0 64.5 -27.5t26.5 -66.5v-555v-215q0 -39 -26 -65l-39 -39q-27 -27 -27 -64.5 t27 -64.5l39 -40q26 -26 26 -65v-217v-555q0 -38 -27 -64.5t-64 -26.5h-333q-38 0 -64.5 26.5t-26.5 64.5v38z" />
<glyph unicode="&#xa1;" horiz-adv-x="528" d="M48 121.5q0 -38.5 27 -65.5l39 -37q26 -29 26 -66v-274q0 -38 27.5 -65t66.5 -27h72q38 0 65 27.5t27 64.5v885q0 38 -27 65t-65 27h-72q-39 0 -66.5 -27t-27.5 -65v-274q0 -40 -26 -66l-39 -37q-27 -27 -27 -65.5zM140 848v167q0 19 13.5 32.5t33.5 13.5h166 q18 0 31.5 -13.5t13.5 -32.5v-167q0 -18 -13.5 -31t-31.5 -13h-166q-19 0 -33 13t-14 31z" />
<glyph unicode="&#xa3;" horiz-adv-x="1134" d="M47 783v129q0 20 13.5 33.5t32.5 13.5h101v93q0 55 28 99l148 237q26 39 68 62.5t89 23.5h394q39 0 66.5 -26.5t27.5 -64.5v-185q0 -38 -27.5 -65t-66.5 -27h-35q-39 0 -66.5 27t-27.5 65v56h-222q-27 0 -39 -23l-79 -125v-147h286q18 0 31.5 -14t13.5 -33v-129 q0 -19 -13.5 -33t-31.5 -14h-286v-469q0 -19 14 -33t33 -14h488q37 0 64 -27t27 -64v-37q0 -38 -27 -65t-64 -27h-610q-76 0 -129.5 54t-53.5 131v107q0 40 -28 65l-37 39q-27 27 -27 64.5t27 64.5l37 39q28 25 28 66v106h-101q-19 0 -32.5 13.5t-13.5 33.5z" />
<glyph unicode="&#xa6;" horiz-adv-x="482" d="M131 -249v683q0 18 14 31t33 13h128q18 0 31.5 -13t13.5 -31v-683q0 -19 -13.5 -32.5t-31.5 -13.5h-128q-20 0 -33.5 13.5t-13.5 32.5zM131 1041v682q0 19 13.5 33t33.5 14h128q18 0 31.5 -14t13.5 -33v-682q0 -18 -13.5 -32.5t-31.5 -14.5h-128q-19 0 -33 14.5t-14 32.5 z" />
<glyph unicode="&#xad;" horiz-adv-x="852" d="M131 673v129q0 19 13.5 32.5t33.5 13.5h497q18 0 32 -13.5t14 -32.5v-129q0 -19 -14 -33t-32 -14h-497q-20 0 -33.5 14t-13.5 33z" />
<glyph unicode="&#xb0;" horiz-adv-x="814" d="M131 1013v370q0 37 26.5 64t64.5 27h368q39 0 66.5 -26.5t27.5 -64.5v-370q0 -38 -27.5 -65t-66.5 -27h-368q-37 0 -64 27t-27 65zM278 1097q0 -19 14 -33t33 -14h165q19 0 32.5 13.5t13.5 33.5v202q0 19 -13 32.5t-33 13.5h-165q-20 0 -33.5 -13.5t-13.5 -32.5v-202z " />
<glyph unicode="&#xb1;" horiz-adv-x="1145" d="M131 192q0 -18 14 -31t33 -13h792q18 0 31.5 13t13.5 31v131q0 18 -13.5 31.5t-31.5 13.5h-792q-19 0 -33 -13.5t-14 -31.5v-131zM131 820v129q0 18 14 31.5t33 13.5h284v286q0 19 14 33t32 14h129q19 0 33 -13.5t14 -33.5v-286h286q18 0 31.5 -13.5t13.5 -31.5v-129 q0 -19 -13.5 -32.5t-31.5 -13.5h-286v-286q0 -18 -14 -31.5t-33 -13.5h-129q-18 0 -32 13.5t-14 31.5v286h-284q-20 0 -33.5 13.5t-13.5 32.5z" />
<glyph unicode="&#xb7;" horiz-adv-x="444" d="M93 654v166q0 18 14 31.5t33 13.5h165q19 0 32.5 -13.5t13.5 -31.5v-166q0 -20 -13.5 -33.5t-32.5 -13.5h-165q-20 0 -33.5 13.5t-13.5 33.5z" />
<glyph unicode="&#xbf;" horiz-adv-x="979" d="M112 -116q0 70 47 123l90 100q25 31 22 67l-2 52q-3 39 22.5 67t63.5 30l54 4q40 0 64 30l89 99v108q0 38 27 65t65 27h73q39 0 66 -27t27 -65v-59q0 -70 -48 -124l-402 -446v-81q0 -19 13.5 -32.5t33.5 -13.5h248v56q0 37 27 64t65 27h37q38 0 65 -27t27 -64v-185 q0 -37 -27 -64.5t-65 -27.5h-497q-77 0 -131 54t-54 131v112zM562 848v167q0 19 13.5 32.5t31.5 13.5h167q20 0 33 -13.5t13 -32.5v-167q0 -18 -13.5 -31t-32.5 -13h-167q-18 0 -31.5 13t-13.5 31z" />
<glyph unicode="&#xc0;" horiz-adv-x="1235" d="M80 118l131 458q11 35 -7 69l-26 48q-18 32 -8 69t43 56l47 27q33 17 45 54l145 508q8 29 32.5 48t55.5 19h159q31 0 55.5 -19t32.5 -48l370 -1289q13 -45 -14.5 -81.5t-73.5 -36.5h-67q-31 0 -55.5 19t-32.5 48l-54 191h-479l-56 -191q-8 -29 -32.5 -48t-55.5 -19h-67 q-45 0 -73 36.5t-15 81.5zM441 478h353l-175 615zM445 1889.5q12 27.5 41 27.5h136q27 0 39 -22l128 -202q14 -24 0.5 -47.5t-40.5 -23.5h-80q-21 0 -36 15l-181 202q-19 23 -7 50.5z" />
<glyph unicode="&#xc1;" horiz-adv-x="1235" d="M80 118l131 458q11 35 -7 69l-26 48q-18 32 -8 69t43 56l47 27q33 17 45 54l145 508q8 29 32.5 48t55.5 19h159q31 0 55.5 -19t32.5 -48l370 -1289q13 -45 -14.5 -81.5t-73.5 -36.5h-67q-31 0 -55.5 19t-32.5 48l-54 191h-479l-56 -191q-8 -29 -32.5 -48t-55.5 -19h-67 q-45 0 -73 36.5t-15 81.5zM441 478h353l-175 615zM446 1645.5q-13 23.5 1 47.5l127 202q15 22 39 22h136q30 0 42.5 -27.5t-8.5 -50.5l-181 -202q-15 -15 -36 -15h-80q-27 0 -40 23.5z" />
<glyph unicode="&#xc2;" horiz-adv-x="1235" d="M80 118l131 458q11 35 -7 69l-26 48q-18 32 -8 69t43 56l47 27q33 17 45 54l145 508q8 29 32.5 48t55.5 19h159q31 0 55.5 -19t32.5 -48l370 -1289q13 -45 -14.5 -81.5t-73.5 -36.5h-67q-31 0 -55.5 19t-32.5 48l-54 191h-479l-56 -191q-8 -29 -32.5 -48t-55.5 -19h-67 q-45 0 -73 36.5t-15 81.5zM365 1645.5q-13 23.5 1 47.5l127 202q15 22 40 22h170q24 0 39 -22l127 -202q14 -24 1 -47.5t-40 -23.5h-77q-26 0 -37 21l-97 155l-98 -155q-15 -21 -39 -21h-77q-27 0 -40 23.5zM441 478h353l-175 615z" />
<glyph unicode="&#xc3;" horiz-adv-x="1235" d="M80 118l131 458q11 35 -7 69l-26 48q-18 32 -8 69t43 56l47 27q33 17 45 54l145 508q8 29 32.5 48t55.5 19h159q31 0 55.5 -19t32.5 -48l370 -1289q13 -45 -14.5 -81.5t-73.5 -36.5h-67q-31 0 -55.5 19t-32.5 48l-54 191h-479l-56 -191q-8 -29 -32.5 -48t-55.5 -19h-67 q-45 0 -73 36.5t-15 81.5zM301.5 1663.5q-12.5 22.5 1.5 44.5l91 148q28 43 79 43h67q25 0 54 -19l153 -110l68 108q11 21 37 21h43q27 0 39.5 -23.5t-2.5 -44.5l-91 -147q-26 -43 -79 -43h-65q-32 0 -54 16l-153 113l-70 -109q-11 -20 -37 -20h-43q-26 0 -38.5 22.5z M441 478h353l-175 615z" />
<glyph unicode="&#xc4;" horiz-adv-x="1235" d="M80 118l131 458q11 35 -7 69l-26 48q-18 32 -8 69t43 56l47 27q33 17 45 54l145 508q8 29 32.5 48t55.5 19h159q31 0 55.5 -19t32.5 -48l370 -1289q13 -45 -14.5 -81.5t-73.5 -36.5h-67q-31 0 -55.5 19t-32.5 48l-54 191h-479l-56 -191q-8 -29 -32.5 -48t-55.5 -19h-67 q-45 0 -73 36.5t-15 81.5zM333 1704v129q0 19 13 33t31 14h129q20 0 33.5 -14t13.5 -33v-129q0 -18 -14 -31.5t-33 -13.5h-129q-18 0 -31 13.5t-13 31.5zM441 478h353l-175 615zM682 1704v129q0 19 14 33t33 14h129q18 0 31.5 -14t13.5 -33v-129q0 -18 -13.5 -31.5 t-31.5 -13.5h-129q-19 0 -33 13.5t-14 31.5z" />
<glyph unicode="&#xc5;" horiz-adv-x="1235" d="M80 118l131 458q11 35 -7 69l-26 48q-18 32 -8 69t43 56l47 27q33 17 45 54l145 508q8 29 32.5 48t55.5 19h159q31 0 55.5 -19t32.5 -48l370 -1289q13 -45 -14.5 -81.5t-73.5 -36.5h-67q-31 0 -55.5 19t-32.5 48l-54 191h-479l-56 -191q-8 -29 -32.5 -48t-55.5 -19h-67 q-45 0 -73 36.5t-15 81.5zM434 1676v185q0 38 27 65t64 27h185q38 0 65 -27.5t27 -64.5v-185q0 -37 -27 -64t-65 -27h-185q-37 0 -64 26.5t-27 64.5zM441 478h353l-175 615zM544 1742q0 -20 13.5 -33.5t32.5 -13.5h55q19 0 32.5 13.5t13.5 33.5v54q0 20 -13.5 33t-32.5 13 h-55q-20 0 -33 -13t-13 -33v-54z" />
<glyph unicode="&#xc6;" horiz-adv-x="1550" d="M80 118l131 458q11 35 -7 69l-26 48q-18 32 -8 69t43 56l47 27q33 17 45 54l145 508q8 29 32.5 48t55.5 19h155h682q38 0 65 -27t27 -64v-38q0 -37 -27 -64t-65 -27h-545l116 -406h355q38 0 64.5 -27t26.5 -66v-36q0 -39 -26.5 -66t-64.5 -27h-292l116 -406h250 q38 0 65 -27t27 -64v-37q0 -38 -27.5 -65t-64.5 -27h-375q-31 0 -55.5 19t-32.5 48l-54 191h-479l-56 -191q-8 -29 -32.5 -48t-55.5 -19h-67q-45 0 -73 36.5t-15 81.5zM441 478h353l-175 615z" />
<glyph unicode="&#xc7;" horiz-adv-x="1248" d="M48 737.5q0 37.5 27 64.5l39 39q26 26 26 65v383q0 77 54 131t131 54h718q39 0 66 -26.5t27 -64.5v-258q0 -39 -27 -66.5t-66 -27.5h-73q-38 0 -65 27.5t-27 66.5v129h-433q-19 0 -33 -14t-14 -33v-940q0 -19 14 -33t33 -14h433v129q0 39 27 66.5t65 27.5h73 q39 0 66 -27.5t27 -66.5v-257q0 -38 -27 -65t-66 -27h-445q26 0 39.5 -20.5t3.5 -44.5l-21 -45h111q38 0 64.5 -27.5t26.5 -66.5v-16v-113v-16q0 -39 -26.5 -66.5t-64.5 -27.5h-19h-211q-19 0 -33 13.5t-14 33.5v37q0 18 14 31.5t33 13.5h192v94h-157q-18 0 -31.5 13 t-13.5 31v56q0 12 4 19l45 101h-215q-77 0 -131 54t-54 131v383q0 39 -26 65l-39 40q-27 27 -27 64.5z" />
<glyph unicode="&#xc8;" horiz-adv-x="1182" d="M48 737.5q0 37.5 27 64.5l39 39q26 26 26 65v348v129q0 38 27.5 64.5t66.5 26.5h164h609q38 0 65 -27t27 -64v-38q0 -37 -27 -64t-65 -27h-609v-406h534q39 0 66.5 -27t27.5 -66v-36q0 -39 -27.5 -66t-66.5 -27h-534v-406h609q38 0 65 -27t27 -64v-37q0 -38 -27.5 -65 t-64.5 -27h-701h-72q-39 0 -66.5 27t-27.5 65v128v348q0 39 -26 65l-39 40q-27 27 -27 64.5zM447 1889.5q12 27.5 41 27.5h136q27 0 39 -22l127 -202q14 -24 1 -47.5t-40 -23.5h-80q-22 0 -34 15l-183 202q-19 23 -7 50.5z" />
<glyph unicode="&#xc9;" horiz-adv-x="1182" d="M48 737.5q0 37.5 27 64.5l39 39q26 26 26 65v348v129q0 38 27.5 64.5t66.5 26.5h164h609q38 0 65 -27t27 -64v-38q0 -37 -27 -64t-65 -27h-609v-406h534q39 0 66.5 -27t27.5 -66v-36q0 -39 -27.5 -66t-66.5 -27h-534v-406h609q38 0 65 -27t27 -64v-37q0 -38 -27.5 -65 t-64.5 -27h-701h-72q-39 0 -66.5 27t-27.5 65v128v348q0 39 -26 65l-39 40q-27 27 -27 64.5zM447.5 1645.5q-13.5 23.5 0.5 47.5l128 202q15 22 39 22h136q30 0 42.5 -27.5t-8.5 -50.5l-181 -202q-15 -15 -36 -15h-80q-27 0 -40.5 23.5z" />
<glyph unicode="&#xca;" horiz-adv-x="1182" d="M48 737.5q0 37.5 27 64.5l39 39q26 26 26 65v348v129q0 38 27.5 64.5t66.5 26.5h164h609q38 0 65 -27t27 -64v-38q0 -37 -27 -64t-65 -27h-609v-406h534q39 0 66.5 -27t27.5 -66v-36q0 -39 -27.5 -66t-66.5 -27h-534v-406h609q38 0 65 -27t27 -64v-37q0 -38 -27.5 -65 t-64.5 -27h-701h-72q-39 0 -66.5 27t-27.5 65v128v348q0 39 -26 65l-39 40q-27 27 -27 64.5zM367 1645.5q-13 23.5 1 47.5l127 202q15 22 39 22h170q28 0 40 -22l127 -202q14 -24 1 -47.5t-40 -23.5h-75q-28 0 -39 21l-98 155l-97 -155q-15 -21 -39 -21h-77q-27 0 -40 23.5z " />
<glyph unicode="&#xcb;" horiz-adv-x="1182" d="M48 737.5q0 37.5 27 64.5l39 39q26 26 26 65v348v129q0 38 27.5 64.5t66.5 26.5h164h609q38 0 65 -27t27 -64v-38q0 -37 -27 -64t-65 -27h-609v-406h534q39 0 66.5 -27t27.5 -66v-36q0 -39 -27.5 -66t-66.5 -27h-534v-406h609q38 0 65 -27t27 -64v-37q0 -38 -27.5 -65 t-64.5 -27h-701h-72q-39 0 -66.5 27t-27.5 65v128v348q0 39 -26 65l-39 40q-27 27 -27 64.5zM334 1704v129q0 19 13.5 33t31.5 14h129q20 0 33.5 -14t13.5 -33v-129q0 -18 -14 -31.5t-33 -13.5h-129q-18 0 -31.5 13.5t-13.5 31.5zM684 1704v129q0 19 14 33t33 14h129 q18 0 32 -14t14 -33v-129q0 -18 -14 -31.5t-32 -13.5h-129q-19 0 -33 13.5t-14 31.5z" />
<glyph unicode="&#xcc;" horiz-adv-x="528" d="M48 737.5q0 37.5 27 64.5l39 39q26 26 26 65v477q0 38 27.5 64.5t66.5 26.5h72q38 0 65 -27t27 -64v-1291q0 -38 -27 -65t-65 -27h-72q-39 0 -66.5 27t-27.5 65v476q0 39 -26 65l-39 40q-27 27 -27 64.5zM96 1889.5q12 27.5 42 27.5h137q24 0 39 -22l127 -202 q14 -24 1 -47.5t-40 -23.5h-81q-20 0 -35 15l-181 202q-21 23 -9 50.5z" />
<glyph unicode="&#xcd;" horiz-adv-x="528" d="M48 737.5q0 37.5 27 64.5l39 39q26 26 26 65v477q0 38 27.5 64.5t66.5 26.5h72q38 0 65 -27t27 -64v-1291q0 -38 -27 -65t-65 -27h-72q-39 0 -66.5 27t-27.5 65v476q0 39 -26 65l-39 40q-27 27 -27 64.5zM98 1645.5q-13 23.5 1 47.5l127 202q12 22 39 22h137 q29 0 41 -27.5t-8 -50.5l-183 -202q-12 -15 -33 -15h-81q-27 0 -40 23.5z" />
<glyph unicode="&#xce;" horiz-adv-x="528" d="M14 1645.5q-13 23.5 1 47.5l127 202q12 22 39 22h170q25 0 40 -22l127 -202q14 -24 0.5 -47.5t-40.5 -23.5h-76q-24 0 -39 21l-98 155l-97 -155q-11 -21 -39 -21h-75q-27 0 -40 23.5zM44 737.5q0 37.5 27 64.5l39 39q26 26 26 65v477q0 38 27.5 64.5t66.5 26.5h73 q37 0 64 -27t27 -64v-1291q0 -38 -27 -65t-64 -27h-73q-39 0 -66.5 27t-27.5 65v476q0 39 -26 65l-39 40q-27 27 -27 64.5z" />
<glyph unicode="&#xcf;" horiz-adv-x="528" d="M-19 1704v129q0 19 13.5 33t33.5 14h129q19 0 33 -14t14 -33v-129q0 -18 -14 -31.5t-33 -13.5h-129q-19 0 -33 13.5t-14 31.5zM46 737.5q0 37.5 27 64.5l39 39q26 26 26 65v477q0 38 27.5 64.5t66.5 26.5h73q37 0 64 -27t27 -64v-1291q0 -38 -27 -65t-64 -27h-73 q-39 0 -66.5 27t-27.5 65v476q0 39 -26 65l-39 40q-27 27 -27 64.5zM333 1704v129q0 19 13 33t31 14h129q20 0 33.5 -14t13.5 -33v-129q0 -18 -14 -31.5t-33 -13.5h-129q-18 0 -31 13.5t-13 31.5z" />
<glyph unicode="&#xd0;" horiz-adv-x="1309" d="M28 673v129q0 19 13.5 32.5t33.5 13.5h82v535q0 37 27 64t65 27h756q76 0 129.5 -54t53.5 -131v-1104q0 -77 -53.5 -131t-129.5 -54h-756q-37 0 -64.5 27t-27.5 65v515v19h-82q-19 0 -33 14t-14 33zM415 220h471q18 0 31.5 14t13.5 33v301q0 38 -27 65l-39 40 q-27 27 -27 64.5t27 64.5l39 39q27 27 27 65v301q0 19 -13.5 33t-31.5 14h-471v-406h157q18 0 32.5 -13.5t14.5 -32.5v-129q0 -19 -14.5 -33t-32.5 -14h-157v-406z" />
<glyph unicode="&#xd1;" horiz-adv-x="1377" d="M48 737.5q0 37.5 27 64.5l39 39q26 26 26 65v477q0 38 27.5 64.5t66.5 26.5h164q55 0 82 -50l508 -992v951q0 37 27 64t65 27h75q37 0 64 -27t27 -64v-1291q0 -38 -27 -65t-64 -27h-167q-57 0 -80 50l-510 993v-951q0 -38 -27 -65t-65 -27h-72q-39 0 -66.5 27t-27.5 65 v476q0 39 -26 65l-39 40q-27 27 -27 64.5zM377.5 1663.5q-12.5 22.5 1.5 44.5l92 148q28 43 78 43h66q28 0 54 -19l153 -110l67 108q15 21 38 21h43q27 0 39.5 -23.5t-0.5 -44.5l-93 -147q-26 -43 -77 -43h-67q-32 0 -54 16l-154 113l-67 -109q-11 -20 -37 -20h-43 q-27 0 -39.5 22.5z" />
<glyph unicode="&#xd2;" d="M48 737.5q0 37.5 27 64.5l39 39q26 26 26 65v383q0 77 54 131t131 54h663q76 0 130.5 -54t54.5 -131v-1104q0 -77 -54.5 -131t-130.5 -54h-663q-77 0 -131 54t-54 131v383q0 39 -26 65l-39 40q-27 27 -27 64.5zM398 267q0 -19 14 -33t33 -14h424q18 0 31.5 14t13.5 33 v301q0 39 -26 65l-38 40q-28 27 -28 64.5t28 64.5l38 39q26 26 26 65v301q0 19 -13.5 33t-31.5 14h-424q-19 0 -33 -14t-14 -33v-940zM480 736l131 131l129 -131l-129 -129zM482.5 1889.5q12.5 27.5 42.5 27.5h136q25 0 40 -22l127 -202q14 -24 1 -47.5t-40 -23.5h-81 q-20 0 -35 15l-182 202q-21 23 -8.5 50.5z" />
<glyph unicode="&#xd3;" d="M48 737.5q0 37.5 27 64.5l39 39q26 26 26 65v383q0 77 54 131t131 54h663q76 0 130.5 -54t54.5 -131v-1104q0 -77 -54.5 -131t-130.5 -54h-663q-77 0 -131 54t-54 131v383q0 39 -26 65l-39 40q-27 27 -27 64.5zM398 267q0 -19 14 -33t33 -14h424q18 0 31.5 14t13.5 33 v301q0 39 -26 65l-38 40q-28 27 -28 64.5t28 64.5l38 39q26 26 26 65v301q0 19 -13.5 33t-31.5 14h-424q-19 0 -33 -14t-14 -33v-940zM480 736l131 131l129 -131l-129 -129zM485 1645.5q-13 23.5 1 47.5l127 202q12 22 39 22h137q29 0 41 -27.5t-8 -50.5l-183 -202 q-12 -15 -34 -15h-80q-27 0 -40 23.5z" />
<glyph unicode="&#xd4;" d="M48 737.5q0 37.5 27 64.5l39 39q26 26 26 65v383q0 77 54 131t131 54h663q76 0 130.5 -54t54.5 -131v-1104q0 -77 -54.5 -131t-130.5 -54h-663q-77 0 -131 54t-54 131v383q0 39 -26 65l-39 40q-27 27 -27 64.5zM398 267q0 -19 14 -33t33 -14h424q18 0 31.5 14t13.5 33 v301q0 39 -26 65l-38 40q-28 27 -28 64.5t28 64.5l38 39q26 26 26 65v301q0 19 -13.5 33t-31.5 14h-424q-19 0 -33 -14t-14 -33v-940zM404.5 1645.5q-13.5 23.5 0.5 47.5l128 202q12 22 39 22h170q24 0 39 -22l127 -202q14 -24 1 -47.5t-40 -23.5h-77q-24 0 -39 21l-97 155 l-97 -155q-11 -21 -38 -21h-76q-27 0 -40.5 23.5zM480 736l131 131l129 -131l-129 -129z" />
<glyph unicode="&#xd5;" d="M48 737.5q0 37.5 27 64.5l39 39q26 26 26 65v383q0 77 54 131t131 54h663q76 0 130.5 -54t54.5 -131v-1104q0 -77 -54.5 -131t-130.5 -54h-663q-77 0 -131 54t-54 131v383q0 39 -26 65l-39 40q-27 27 -27 64.5zM340 1663.5q-12 22.5 2 44.5l92 148q28 43 78 43h65 q29 0 55 -19l153 -110l69 108q11 21 37 21h43q26 0 39 -23.5t-1 -44.5l-92 -147q-26 -43 -78 -43h-68q-29 0 -54 16l-153 113l-67 -109q-11 -20 -38 -20h-43q-27 0 -39 22.5zM398 267q0 -19 14 -33t33 -14h424q18 0 31.5 14t13.5 33v301q0 39 -26 65l-38 40q-28 27 -28 64.5 t28 64.5l38 39q26 26 26 65v301q0 19 -13.5 33t-31.5 14h-424q-19 0 -33 -14t-14 -33v-940zM480 736l131 131l129 -131l-129 -129z" />
<glyph unicode="&#xd6;" d="M48 737.5q0 37.5 27 64.5l39 39q26 26 26 65v383q0 77 54 131t131 54h663q76 0 130.5 -54t54.5 -131v-1104q0 -77 -54.5 -131t-130.5 -54h-663q-77 0 -131 54t-54 131v383q0 39 -26 65l-39 40q-27 27 -27 64.5zM372 1704v129q0 19 13.5 33t31.5 14h129q19 0 32.5 -13.5 t13.5 -33.5v-129q0 -18 -13.5 -31.5t-32.5 -13.5h-129q-18 0 -31.5 13.5t-13.5 31.5zM398 267q0 -19 14 -33t33 -14h424q18 0 31.5 14t13.5 33v301q0 39 -26 65l-38 40q-28 27 -28 64.5t28 64.5l38 39q26 26 26 65v301q0 19 -13.5 33t-31.5 14h-424q-19 0 -33 -14t-14 -33 v-940zM480 736l131 131l129 -131l-129 -129zM721 1704v129q0 19 13.5 33t33.5 14h129q18 0 31.5 -14t13.5 -33v-129q0 -18 -13.5 -31.5t-31.5 -13.5h-129q-19 0 -33 13.5t-14 31.5z" />
<glyph unicode="&#xd7;" horiz-adv-x="1005" d="M131 502q0 19 13 32l202 202l-202 204q-13 13 -13 31.5t13 31.5l91 92q14 14 33 14t33 -14l202 -202l201 202q14 14 33 14t33 -14l91 -92q13 -13 13 -31.5t-13 -31.5l-201 -204l201 -202q13 -13 13 -32t-13 -33l-91 -90q-14 -14 -33 -14t-33 14l-201 202l-202 -202 q-14 -14 -33 -14t-33 14l-91 90q-13 14 -13 33z" />
<glyph unicode="&#xd8;" d="M48 737.5q0 37.5 27 64.5l39 39q26 26 26 65v383q0 77 54 131t131 54h176v101q0 19 13.5 33t31.5 14h129q19 0 32.5 -13.5t13.5 -33.5v-101h267q76 0 130.5 -54t54.5 -131v-1104q0 -77 -54.5 -131t-130.5 -54h-267v-101q0 -20 -13.5 -33.5t-32.5 -13.5h-129 q-18 0 -31.5 14t-13.5 33v101h-176q-77 0 -131 54t-54 131v383q0 39 -26 65l-39 40q-27 27 -27 64.5zM398 267q0 -19 14 -33t33 -14h56v1034h-56q-19 0 -33 -14t-14 -33v-471v-469zM721 220h148q18 0 31.5 14t13.5 33v301q0 39 -26 65l-38 40q-28 27 -28 64.5t28 64.5l38 39 q26 26 26 65v301q0 19 -13.5 33t-31.5 14h-148v-1034z" />
<glyph unicode="&#xd9;" d="M48 737.5q0 37.5 27 64.5l39 39q26 26 26 65v477q0 38 27.5 64.5t66.5 26.5h72q38 0 65 -27t27 -64v-1116q0 -19 14 -33t33 -14h424q18 0 31.5 14t13.5 33v301q0 39 -26 65l-38 40q-28 27 -28 64.5t28 64.5l38 39q26 26 26 65v477q0 37 27.5 64t65.5 27h73q38 0 65.5 -27 t27.5 -64v-1198q0 -77 -54.5 -131t-130.5 -54h-663q-77 0 -131 54t-54 131v383q0 39 -26 65l-39 40q-27 27 -27 64.5zM482.5 1889.5q12.5 27.5 42.5 27.5h136q25 0 40 -22l127 -202q14 -24 1 -47.5t-40 -23.5h-81q-20 0 -35 15l-182 202q-21 23 -8.5 50.5z" />
<glyph unicode="&#xda;" d="M48 737.5q0 37.5 27 64.5l39 39q26 26 26 65v477q0 38 27.5 64.5t66.5 26.5h72q38 0 65 -27t27 -64v-1116q0 -19 14 -33t33 -14h424q18 0 31.5 14t13.5 33v301q0 39 -26 65l-38 40q-28 27 -28 64.5t28 64.5l38 39q26 26 26 65v477q0 37 27.5 64t65.5 27h73q38 0 65.5 -27 t27.5 -64v-1198q0 -77 -54.5 -131t-130.5 -54h-663q-77 0 -131 54t-54 131v383q0 39 -26 65l-39 40q-27 27 -27 64.5zM485 1645.5q-13 23.5 1 47.5l127 202q12 22 39 22h137q29 0 41 -27.5t-8 -50.5l-183 -202q-12 -15 -34 -15h-80q-27 0 -40 23.5z" />
<glyph unicode="&#xdb;" d="M48 737.5q0 37.5 27 64.5l39 39q26 26 26 65v477q0 38 27.5 64.5t66.5 26.5h72q38 0 65 -27t27 -64v-1116q0 -19 14 -33t33 -14h424q18 0 31.5 14t13.5 33v301q0 39 -26 65l-38 40q-28 27 -28 64.5t28 64.5l38 39q26 26 26 65v477q0 37 27.5 64t65.5 27h73q38 0 65.5 -27 t27.5 -64v-1198q0 -77 -54.5 -131t-130.5 -54h-663q-77 0 -131 54t-54 131v383q0 39 -26 65l-39 40q-27 27 -27 64.5zM404.5 1645.5q-13.5 23.5 0.5 47.5l128 202q12 22 39 22h170q24 0 39 -22l127 -202q14 -24 1 -47.5t-40 -23.5h-77q-24 0 -39 21l-97 155l-97 -155 q-11 -21 -38 -21h-76q-27 0 -40.5 23.5z" />
<glyph unicode="&#xdc;" d="M48 737.5q0 37.5 27 64.5l39 39q26 26 26 65v477q0 38 27.5 64.5t66.5 26.5h72q38 0 65 -27t27 -64v-1116q0 -19 14 -33t33 -14h424q18 0 31.5 14t13.5 33v301q0 39 -26 65l-38 40q-28 27 -28 64.5t28 64.5l38 39q26 26 26 65v477q0 37 27.5 64t65.5 27h73q38 0 65.5 -27 t27.5 -64v-1198q0 -77 -54.5 -131t-130.5 -54h-663q-77 0 -131 54t-54 131v383q0 39 -26 65l-39 40q-27 27 -27 64.5zM372 1704v129q0 19 13.5 33t31.5 14h129q19 0 32.5 -13.5t13.5 -33.5v-129q0 -18 -13.5 -31.5t-32.5 -13.5h-129q-18 0 -31.5 13.5t-13.5 31.5zM721 1704 v129q0 19 13.5 33t33.5 14h129q18 0 31.5 -14t13.5 -33v-129q0 -18 -13.5 -31.5t-31.5 -13.5h-129q-19 0 -33 13.5t-14 31.5z" />
<glyph unicode="&#xdd;" horiz-adv-x="1222" d="M80 1336q-25 46 2 92t79 46h65q53 0 80 -48l305 -551l306 551q24 48 81 48h63q53 0 80.5 -46t0.5 -92l-402 -710v-534q0 -38 -27 -65t-65 -27h-72q-39 0 -66.5 27t-27.5 65v52q0 39 -26 65l-39 40q-27 27 -27 64t27 64l39 40q26 26 26 65v144zM440 1645.5 q-13 23.5 1 47.5l127 202q12 22 39 22h137q29 0 41 -27.5t-8 -50.5l-183 -202q-12 -15 -33 -15h-81q-27 0 -40 23.5z" />
<glyph unicode="&#xde;" horiz-adv-x="1220" d="M48 737.5q0 37.5 27 64.5l39 39q26 26 26 65v477q0 38 27.5 64.5t66.5 26.5h72q38 0 65 -27t27 -64v-223h516q77 0 131 -53.5t54 -129.5v-480q0 -76 -54 -129.5t-131 -53.5h-516v-222q0 -38 -27 -65t-65 -27h-72q-39 0 -66.5 27t-27.5 65v476q0 39 -26 65l-39 40 q-27 27 -27 64.5zM398 534h396q20 0 33.5 14t13.5 33v312q0 19 -13.5 33t-33.5 14h-396v-406z" />
<glyph unicode="&#xdf;" d="M48 737.5q0 37.5 27 64.5l39 39q26 26 26 65v477q0 38 27.5 64.5t66.5 26.5h846q39 0 66 -26.5t27 -64.5v-99q0 -29 -18 -54l-277 -382h110q76 0 130.5 -54.5t54.5 -130.5v-478q0 -77 -54.5 -131t-130.5 -54h-349q-39 0 -66 27t-27 65v37q0 38 27 64.5t66 26.5h230 q19 0 32 13.5t13 33.5v314q0 18 -13 31.5t-32 13.5h-165q-38 0 -64.5 27t-26.5 66v99q0 29 17 55l278 381h-510v-1162q0 -38 -27 -65t-65 -27h-72q-39 0 -66.5 27t-27.5 65v476q0 39 -26 65l-39 40q-27 27 -27 64.5z" />
<glyph unicode="&#xe0;" horiz-adv-x="1235" d="M80 118l131 458q11 35 -7 69l-26 48q-18 32 -8 69t43 56l47 27q33 17 45 54l145 508q8 29 32.5 48t55.5 19h159q31 0 55.5 -19t32.5 -48l370 -1289q13 -45 -14.5 -81.5t-73.5 -36.5h-67q-31 0 -55.5 19t-32.5 48l-54 191h-479l-56 -191q-8 -29 -32.5 -48t-55.5 -19h-67 q-45 0 -73 36.5t-15 81.5zM441 478h353l-175 615zM445 1889.5q12 27.5 41 27.5h136q27 0 39 -22l128 -202q14 -24 0.5 -47.5t-40.5 -23.5h-80q-21 0 -36 15l-181 202q-19 23 -7 50.5z" />
<glyph unicode="&#xe1;" horiz-adv-x="1235" d="M80 118l131 458q11 35 -7 69l-26 48q-18 32 -8 69t43 56l47 27q33 17 45 54l145 508q8 29 32.5 48t55.5 19h159q31 0 55.5 -19t32.5 -48l370 -1289q13 -45 -14.5 -81.5t-73.5 -36.5h-67q-31 0 -55.5 19t-32.5 48l-54 191h-479l-56 -191q-8 -29 -32.5 -48t-55.5 -19h-67 q-45 0 -73 36.5t-15 81.5zM441 478h353l-175 615zM446 1645.5q-13 23.5 1 47.5l127 202q15 22 39 22h136q30 0 42.5 -27.5t-8.5 -50.5l-181 -202q-15 -15 -36 -15h-80q-27 0 -40 23.5z" />
<glyph unicode="&#xe2;" horiz-adv-x="1235" d="M80 118l131 458q11 35 -7 69l-26 48q-18 32 -8 69t43 56l47 27q33 17 45 54l145 508q8 29 32.5 48t55.5 19h159q31 0 55.5 -19t32.5 -48l370 -1289q13 -45 -14.5 -81.5t-73.5 -36.5h-67q-31 0 -55.5 19t-32.5 48l-54 191h-479l-56 -191q-8 -29 -32.5 -48t-55.5 -19h-67 q-45 0 -73 36.5t-15 81.5zM365 1645.5q-13 23.5 1 47.5l127 202q15 22 40 22h170q24 0 39 -22l127 -202q14 -24 1 -47.5t-40 -23.5h-77q-26 0 -37 21l-97 155l-98 -155q-15 -21 -39 -21h-77q-27 0 -40 23.5zM441 478h353l-175 615z" />
<glyph unicode="&#xe3;" horiz-adv-x="1235" d="M80 118l131 458q11 35 -7 69l-26 48q-18 32 -8 69t43 56l47 27q33 17 45 54l145 508q8 29 32.5 48t55.5 19h159q31 0 55.5 -19t32.5 -48l370 -1289q13 -45 -14.5 -81.5t-73.5 -36.5h-67q-31 0 -55.5 19t-32.5 48l-54 191h-479l-56 -191q-8 -29 -32.5 -48t-55.5 -19h-67 q-45 0 -73 36.5t-15 81.5zM301.5 1663.5q-12.5 22.5 1.5 44.5l91 148q28 43 79 43h67q25 0 54 -19l153 -110l68 108q11 21 37 21h43q27 0 39.5 -23.5t-2.5 -44.5l-91 -147q-26 -43 -79 -43h-65q-32 0 -54 16l-153 113l-70 -109q-11 -20 -37 -20h-43q-26 0 -38.5 22.5z M441 478h353l-175 615z" />
<glyph unicode="&#xe4;" horiz-adv-x="1235" d="M80 118l131 458q11 35 -7 69l-26 48q-18 32 -8 69t43 56l47 27q33 17 45 54l145 508q8 29 32.5 48t55.5 19h159q31 0 55.5 -19t32.5 -48l370 -1289q13 -45 -14.5 -81.5t-73.5 -36.5h-67q-31 0 -55.5 19t-32.5 48l-54 191h-479l-56 -191q-8 -29 -32.5 -48t-55.5 -19h-67 q-45 0 -73 36.5t-15 81.5zM333 1704v129q0 19 13 33t31 14h129q20 0 33.5 -14t13.5 -33v-129q0 -18 -14 -31.5t-33 -13.5h-129q-18 0 -31 13.5t-13 31.5zM441 478h353l-175 615zM682 1704v129q0 19 14 33t33 14h129q18 0 31.5 -14t13.5 -33v-129q0 -18 -13.5 -31.5 t-31.5 -13.5h-129q-19 0 -33 13.5t-14 31.5z" />
<glyph unicode="&#xe5;" horiz-adv-x="1235" d="M80 118l131 458q11 35 -7 69l-26 48q-18 32 -8 69t43 56l47 27q33 17 45 54l145 508q8 29 32.5 48t55.5 19h159q31 0 55.5 -19t32.5 -48l370 -1289q13 -45 -14.5 -81.5t-73.5 -36.5h-67q-31 0 -55.5 19t-32.5 48l-54 191h-479l-56 -191q-8 -29 -32.5 -48t-55.5 -19h-67 q-45 0 -73 36.5t-15 81.5zM434 1676v185q0 38 27 65t64 27h185q38 0 65 -27.5t27 -64.5v-185q0 -37 -27 -64t-65 -27h-185q-37 0 -64 26.5t-27 64.5zM441 478h353l-175 615zM544 1742q0 -20 13.5 -33.5t32.5 -13.5h55q19 0 32.5 13.5t13.5 33.5v54q0 20 -13.5 33t-32.5 13 h-55q-20 0 -33 -13t-13 -33v-54z" />
<glyph unicode="&#xe6;" horiz-adv-x="1550" d="M80 118l131 458q11 35 -7 69l-26 48q-18 32 -8 69t43 56l47 27q33 17 45 54l145 508q8 29 32.5 48t55.5 19h155h682q38 0 65 -27t27 -64v-38q0 -37 -27 -64t-65 -27h-545l116 -406h355q38 0 64.5 -27t26.5 -66v-36q0 -39 -26.5 -66t-64.5 -27h-292l116 -406h250 q38 0 65 -27t27 -64v-37q0 -38 -27.5 -65t-64.5 -27h-375q-31 0 -55.5 19t-32.5 48l-54 191h-479l-56 -191q-8 -29 -32.5 -48t-55.5 -19h-67q-45 0 -73 36.5t-15 81.5zM441 478h353l-175 615z" />
<glyph unicode="&#xe7;" horiz-adv-x="1248" d="M48 737.5q0 37.5 27 64.5l39 39q26 26 26 65v383q0 77 54 131t131 54h718q39 0 66 -26.5t27 -64.5v-258q0 -39 -27 -66.5t-66 -27.5h-73q-38 0 -65 27.5t-27 66.5v129h-433q-19 0 -33 -14t-14 -33v-940q0 -19 14 -33t33 -14h433v129q0 39 27 66.5t65 27.5h73 q39 0 66 -27.5t27 -66.5v-257q0 -38 -27 -65t-66 -27h-445q26 0 39.5 -20.5t3.5 -44.5l-21 -45h111q38 0 64.5 -27.5t26.5 -66.5v-16v-113v-16q0 -39 -26.5 -66.5t-64.5 -27.5h-19h-211q-19 0 -33 13.5t-14 33.5v37q0 18 14 31.5t33 13.5h192v94h-157q-18 0 -31.5 13 t-13.5 31v56q0 12 4 19l45 101h-215q-77 0 -131 54t-54 131v383q0 39 -26 65l-39 40q-27 27 -27 64.5z" />
<glyph unicode="&#xe8;" horiz-adv-x="1182" d="M48 737.5q0 37.5 27 64.5l39 39q26 26 26 65v348v129q0 38 27.5 64.5t66.5 26.5h164h609q38 0 65 -27t27 -64v-38q0 -37 -27 -64t-65 -27h-609v-406h534q39 0 66.5 -27t27.5 -66v-36q0 -39 -27.5 -66t-66.5 -27h-534v-406h609q38 0 65 -27t27 -64v-37q0 -38 -27.5 -65 t-64.5 -27h-701h-72q-39 0 -66.5 27t-27.5 65v128v348q0 39 -26 65l-39 40q-27 27 -27 64.5zM447 1889.5q12 27.5 41 27.5h136q27 0 39 -22l127 -202q14 -24 1 -47.5t-40 -23.5h-80q-22 0 -34 15l-183 202q-19 23 -7 50.5z" />
<glyph unicode="&#xe9;" horiz-adv-x="1182" d="M48 737.5q0 37.5 27 64.5l39 39q26 26 26 65v348v129q0 38 27.5 64.5t66.5 26.5h164h609q38 0 65 -27t27 -64v-38q0 -37 -27 -64t-65 -27h-609v-406h534q39 0 66.5 -27t27.5 -66v-36q0 -39 -27.5 -66t-66.5 -27h-534v-406h609q38 0 65 -27t27 -64v-37q0 -38 -27.5 -65 t-64.5 -27h-701h-72q-39 0 -66.5 27t-27.5 65v128v348q0 39 -26 65l-39 40q-27 27 -27 64.5zM447.5 1645.5q-13.5 23.5 0.5 47.5l128 202q15 22 39 22h136q30 0 42.5 -27.5t-8.5 -50.5l-181 -202q-15 -15 -36 -15h-80q-27 0 -40.5 23.5z" />
<glyph unicode="&#xea;" horiz-adv-x="1182" d="M48 737.5q0 37.5 27 64.5l39 39q26 26 26 65v348v129q0 38 27.5 64.5t66.5 26.5h164h609q38 0 65 -27t27 -64v-38q0 -37 -27 -64t-65 -27h-609v-406h534q39 0 66.5 -27t27.5 -66v-36q0 -39 -27.5 -66t-66.5 -27h-534v-406h609q38 0 65 -27t27 -64v-37q0 -38 -27.5 -65 t-64.5 -27h-701h-72q-39 0 -66.5 27t-27.5 65v128v348q0 39 -26 65l-39 40q-27 27 -27 64.5zM367 1645.5q-13 23.5 1 47.5l127 202q15 22 39 22h170q28 0 40 -22l127 -202q14 -24 1 -47.5t-40 -23.5h-75q-28 0 -39 21l-98 155l-97 -155q-15 -21 -39 -21h-77q-27 0 -40 23.5z " />
<glyph unicode="&#xeb;" horiz-adv-x="1182" d="M48 737.5q0 37.5 27 64.5l39 39q26 26 26 65v348v129q0 38 27.5 64.5t66.5 26.5h164h609q38 0 65 -27t27 -64v-38q0 -37 -27 -64t-65 -27h-609v-406h534q39 0 66.5 -27t27.5 -66v-36q0 -39 -27.5 -66t-66.5 -27h-534v-406h609q38 0 65 -27t27 -64v-37q0 -38 -27.5 -65 t-64.5 -27h-701h-72q-39 0 -66.5 27t-27.5 65v128v348q0 39 -26 65l-39 40q-27 27 -27 64.5zM334 1704v129q0 19 13.5 33t31.5 14h129q20 0 33.5 -14t13.5 -33v-129q0 -18 -14 -31.5t-33 -13.5h-129q-18 0 -31.5 13.5t-13.5 31.5zM684 1704v129q0 19 14 33t33 14h129 q18 0 32 -14t14 -33v-129q0 -18 -14 -31.5t-32 -13.5h-129q-19 0 -33 13.5t-14 31.5z" />
<glyph unicode="&#xec;" horiz-adv-x="528" d="M48 737.5q0 37.5 27 64.5l39 39q26 26 26 65v477q0 38 27.5 64.5t66.5 26.5h72q38 0 65 -27t27 -64v-1291q0 -38 -27 -65t-65 -27h-72q-39 0 -66.5 27t-27.5 65v476q0 39 -26 65l-39 40q-27 27 -27 64.5zM96 1889.5q12 27.5 42 27.5h137q24 0 39 -22l127 -202 q14 -24 1 -47.5t-40 -23.5h-81q-20 0 -35 15l-181 202q-21 23 -9 50.5z" />
<glyph unicode="&#xed;" horiz-adv-x="528" d="M48 737.5q0 37.5 27 64.5l39 39q26 26 26 65v477q0 38 27.5 64.5t66.5 26.5h72q38 0 65 -27t27 -64v-1291q0 -38 -27 -65t-65 -27h-72q-39 0 -66.5 27t-27.5 65v476q0 39 -26 65l-39 40q-27 27 -27 64.5zM98 1645.5q-13 23.5 1 47.5l127 202q12 22 39 22h137 q29 0 41 -27.5t-8 -50.5l-183 -202q-12 -15 -33 -15h-81q-27 0 -40 23.5z" />
<glyph unicode="&#xee;" horiz-adv-x="528" d="M14 1645.5q-13 23.5 1 47.5l127 202q12 22 39 22h170q25 0 40 -22l127 -202q14 -24 0.5 -47.5t-40.5 -23.5h-76q-24 0 -39 21l-98 155l-97 -155q-11 -21 -39 -21h-75q-27 0 -40 23.5zM44 737.5q0 37.5 27 64.5l39 39q26 26 26 65v477q0 38 27.5 64.5t66.5 26.5h73 q37 0 64 -27t27 -64v-1291q0 -38 -27 -65t-64 -27h-73q-39 0 -66.5 27t-27.5 65v476q0 39 -26 65l-39 40q-27 27 -27 64.5z" />
<glyph unicode="&#xef;" horiz-adv-x="528" d="M-19 1704v129q0 19 13.5 33t33.5 14h129q19 0 33 -14t14 -33v-129q0 -18 -14 -31.5t-33 -13.5h-129q-19 0 -33 13.5t-14 31.5zM46 737.5q0 37.5 27 64.5l39 39q26 26 26 65v477q0 38 27.5 64.5t66.5 26.5h73q37 0 64 -27t27 -64v-1291q0 -38 -27 -65t-64 -27h-73 q-39 0 -66.5 27t-27.5 65v476q0 39 -26 65l-39 40q-27 27 -27 64.5zM333 1704v129q0 19 13 33t31 14h129q20 0 33.5 -14t13.5 -33v-129q0 -18 -14 -31.5t-33 -13.5h-129q-18 0 -31 13.5t-13 31.5z" />
<glyph unicode="&#xf0;" horiz-adv-x="1309" d="M28 673v129q0 19 13.5 32.5t33.5 13.5h82v535q0 37 27 64t65 27h756q76 0 129.5 -54t53.5 -131v-1104q0 -77 -53.5 -131t-129.5 -54h-756q-37 0 -64.5 27t-27.5 65v515v19h-82q-19 0 -33 14t-14 33zM415 220h471q18 0 31.5 14t13.5 33v301q0 38 -27 65l-39 40 q-27 27 -27 64.5t27 64.5l39 39q27 27 27 65v301q0 19 -13.5 33t-31.5 14h-471v-406h157q18 0 32.5 -13.5t14.5 -32.5v-129q0 -19 -14.5 -33t-32.5 -14h-157v-406z" />
<glyph unicode="&#xf1;" horiz-adv-x="1377" d="M48 737.5q0 37.5 27 64.5l39 39q26 26 26 65v477q0 38 27.5 64.5t66.5 26.5h164q55 0 82 -50l508 -992v951q0 37 27 64t65 27h75q37 0 64 -27t27 -64v-1291q0 -38 -27 -65t-64 -27h-167q-57 0 -80 50l-510 993v-951q0 -38 -27 -65t-65 -27h-72q-39 0 -66.5 27t-27.5 65 v476q0 39 -26 65l-39 40q-27 27 -27 64.5zM377.5 1663.5q-12.5 22.5 1.5 44.5l92 148q28 43 78 43h66q28 0 54 -19l153 -110l67 108q15 21 38 21h43q27 0 39.5 -23.5t-0.5 -44.5l-93 -147q-26 -43 -77 -43h-67q-32 0 -54 16l-154 113l-67 -109q-11 -20 -37 -20h-43 q-27 0 -39.5 22.5z" />
<glyph unicode="&#xf2;" d="M48 737.5q0 37.5 27 64.5l39 39q26 26 26 65v383q0 77 54 131t131 54h663q76 0 130.5 -54t54.5 -131v-1104q0 -77 -54.5 -131t-130.5 -54h-663q-77 0 -131 54t-54 131v383q0 39 -26 65l-39 40q-27 27 -27 64.5zM398 267q0 -19 14 -33t33 -14h424q18 0 31.5 14t13.5 33 v301q0 39 -26 65l-38 40q-28 27 -28 64.5t28 64.5l38 39q26 26 26 65v301q0 19 -13.5 33t-31.5 14h-424q-19 0 -33 -14t-14 -33v-940zM480 736l131 131l129 -131l-129 -129zM482.5 1889.5q12.5 27.5 42.5 27.5h136q25 0 40 -22l127 -202q14 -24 1 -47.5t-40 -23.5h-81 q-20 0 -35 15l-182 202q-21 23 -8.5 50.5z" />
<glyph unicode="&#xf3;" d="M48 737.5q0 37.5 27 64.5l39 39q26 26 26 65v383q0 77 54 131t131 54h663q76 0 130.5 -54t54.5 -131v-1104q0 -77 -54.5 -131t-130.5 -54h-663q-77 0 -131 54t-54 131v383q0 39 -26 65l-39 40q-27 27 -27 64.5zM398 267q0 -19 14 -33t33 -14h424q18 0 31.5 14t13.5 33 v301q0 39 -26 65l-38 40q-28 27 -28 64.5t28 64.5l38 39q26 26 26 65v301q0 19 -13.5 33t-31.5 14h-424q-19 0 -33 -14t-14 -33v-940zM480 736l131 131l129 -131l-129 -129zM485 1645.5q-13 23.5 1 47.5l127 202q12 22 39 22h137q29 0 41 -27.5t-8 -50.5l-183 -202 q-12 -15 -34 -15h-80q-27 0 -40 23.5z" />
<glyph unicode="&#xf4;" d="M48 737.5q0 37.5 27 64.5l39 39q26 26 26 65v383q0 77 54 131t131 54h663q76 0 130.5 -54t54.5 -131v-1104q0 -77 -54.5 -131t-130.5 -54h-663q-77 0 -131 54t-54 131v383q0 39 -26 65l-39 40q-27 27 -27 64.5zM398 267q0 -19 14 -33t33 -14h424q18 0 31.5 14t13.5 33 v301q0 39 -26 65l-38 40q-28 27 -28 64.5t28 64.5l38 39q26 26 26 65v301q0 19 -13.5 33t-31.5 14h-424q-19 0 -33 -14t-14 -33v-940zM404.5 1645.5q-13.5 23.5 0.5 47.5l128 202q12 22 39 22h170q24 0 39 -22l127 -202q14 -24 1 -47.5t-40 -23.5h-77q-24 0 -39 21l-97 155 l-97 -155q-11 -21 -38 -21h-76q-27 0 -40.5 23.5zM480 736l131 131l129 -131l-129 -129z" />
<glyph unicode="&#xf5;" d="M48 737.5q0 37.5 27 64.5l39 39q26 26 26 65v383q0 77 54 131t131 54h663q76 0 130.5 -54t54.5 -131v-1104q0 -77 -54.5 -131t-130.5 -54h-663q-77 0 -131 54t-54 131v383q0 39 -26 65l-39 40q-27 27 -27 64.5zM340 1663.5q-12 22.5 2 44.5l92 148q28 43 78 43h65 q29 0 55 -19l153 -110l69 108q11 21 37 21h43q26 0 39 -23.5t-1 -44.5l-92 -147q-26 -43 -78 -43h-68q-29 0 -54 16l-153 113l-67 -109q-11 -20 -38 -20h-43q-27 0 -39 22.5zM398 267q0 -19 14 -33t33 -14h424q18 0 31.5 14t13.5 33v301q0 39 -26 65l-38 40q-28 27 -28 64.5 t28 64.5l38 39q26 26 26 65v301q0 19 -13.5 33t-31.5 14h-424q-19 0 -33 -14t-14 -33v-940zM480 736l131 131l129 -131l-129 -129z" />
<glyph unicode="&#xf6;" d="M48 737.5q0 37.5 27 64.5l39 39q26 26 26 65v383q0 77 54 131t131 54h663q76 0 130.5 -54t54.5 -131v-1104q0 -77 -54.5 -131t-130.5 -54h-663q-77 0 -131 54t-54 131v383q0 39 -26 65l-39 40q-27 27 -27 64.5zM372 1704v129q0 19 13.5 33t31.5 14h129q19 0 32.5 -13.5 t13.5 -33.5v-129q0 -18 -13.5 -31.5t-32.5 -13.5h-129q-18 0 -31.5 13.5t-13.5 31.5zM398 267q0 -19 14 -33t33 -14h424q18 0 31.5 14t13.5 33v301q0 39 -26 65l-38 40q-28 27 -28 64.5t28 64.5l38 39q26 26 26 65v301q0 19 -13.5 33t-31.5 14h-424q-19 0 -33 -14t-14 -33 v-940zM480 736l131 131l129 -131l-129 -129zM721 1704v129q0 19 13.5 33t33.5 14h129q18 0 31.5 -14t13.5 -33v-129q0 -18 -13.5 -31.5t-31.5 -13.5h-129q-19 0 -33 13.5t-14 31.5z" />
<glyph unicode="&#xf7;" horiz-adv-x="1145" d="M131 673v129q0 19 13.5 32.5t33.5 13.5h792q18 0 31.5 -13.5t13.5 -32.5v-129q0 -19 -13.5 -33t-31.5 -14h-792q-20 0 -33.5 14t-13.5 33zM462 305v129q0 18 14 31t32 13h129q19 0 33 -13t14 -31v-129q0 -19 -14 -33t-33 -14h-129q-18 0 -32 14t-14 33zM462 1041v129 q0 19 14 32.5t32 13.5h129q20 0 33.5 -13.5t13.5 -32.5v-129q0 -18 -14 -32.5t-33 -14.5h-129q-18 0 -32 14.5t-14 32.5z" />
<glyph unicode="&#xf8;" d="M48 737.5q0 37.5 27 64.5l39 39q26 26 26 65v383q0 77 54 131t131 54h176v101q0 19 13.5 33t31.5 14h129q19 0 32.5 -13.5t13.5 -33.5v-101h267q76 0 130.5 -54t54.5 -131v-1104q0 -77 -54.5 -131t-130.5 -54h-267v-101q0 -20 -13.5 -33.5t-32.5 -13.5h-129 q-18 0 -31.5 14t-13.5 33v101h-176q-77 0 -131 54t-54 131v383q0 39 -26 65l-39 40q-27 27 -27 64.5zM398 267q0 -19 14 -33t33 -14h56v1034h-56q-19 0 -33 -14t-14 -33v-471v-469zM721 220h148q18 0 31.5 14t13.5 33v301q0 39 -26 65l-38 40q-28 27 -28 64.5t28 64.5l38 39 q26 26 26 65v301q0 19 -13.5 33t-31.5 14h-148v-1034z" />
<glyph unicode="&#xf9;" d="M48 737.5q0 37.5 27 64.5l39 39q26 26 26 65v477q0 38 27.5 64.5t66.5 26.5h72q38 0 65 -27t27 -64v-1116q0 -19 14 -33t33 -14h424q18 0 31.5 14t13.5 33v301q0 39 -26 65l-38 40q-28 27 -28 64.5t28 64.5l38 39q26 26 26 65v477q0 37 27.5 64t65.5 27h73q38 0 65.5 -27 t27.5 -64v-1198q0 -77 -54.5 -131t-130.5 -54h-663q-77 0 -131 54t-54 131v383q0 39 -26 65l-39 40q-27 27 -27 64.5zM482.5 1889.5q12.5 27.5 42.5 27.5h136q25 0 40 -22l127 -202q14 -24 1 -47.5t-40 -23.5h-81q-20 0 -35 15l-182 202q-21 23 -8.5 50.5z" />
<glyph unicode="&#xfa;" d="M48 737.5q0 37.5 27 64.5l39 39q26 26 26 65v477q0 38 27.5 64.5t66.5 26.5h72q38 0 65 -27t27 -64v-1116q0 -19 14 -33t33 -14h424q18 0 31.5 14t13.5 33v301q0 39 -26 65l-38 40q-28 27 -28 64.5t28 64.5l38 39q26 26 26 65v477q0 37 27.5 64t65.5 27h73q38 0 65.5 -27 t27.5 -64v-1198q0 -77 -54.5 -131t-130.5 -54h-663q-77 0 -131 54t-54 131v383q0 39 -26 65l-39 40q-27 27 -27 64.5zM485 1645.5q-13 23.5 1 47.5l127 202q12 22 39 22h137q29 0 41 -27.5t-8 -50.5l-183 -202q-12 -15 -34 -15h-80q-27 0 -40 23.5z" />
<glyph unicode="&#xfb;" d="M48 737.5q0 37.5 27 64.5l39 39q26 26 26 65v477q0 38 27.5 64.5t66.5 26.5h72q38 0 65 -27t27 -64v-1116q0 -19 14 -33t33 -14h424q18 0 31.5 14t13.5 33v301q0 39 -26 65l-38 40q-28 27 -28 64.5t28 64.5l38 39q26 26 26 65v477q0 37 27.5 64t65.5 27h73q38 0 65.5 -27 t27.5 -64v-1198q0 -77 -54.5 -131t-130.5 -54h-663q-77 0 -131 54t-54 131v383q0 39 -26 65l-39 40q-27 27 -27 64.5zM404.5 1645.5q-13.5 23.5 0.5 47.5l128 202q12 22 39 22h170q24 0 39 -22l127 -202q14 -24 1 -47.5t-40 -23.5h-77q-24 0 -39 21l-97 155l-97 -155 q-11 -21 -38 -21h-76q-27 0 -40.5 23.5z" />
<glyph unicode="&#xfc;" d="M48 737.5q0 37.5 27 64.5l39 39q26 26 26 65v477q0 38 27.5 64.5t66.5 26.5h72q38 0 65 -27t27 -64v-1116q0 -19 14 -33t33 -14h424q18 0 31.5 14t13.5 33v301q0 39 -26 65l-38 40q-28 27 -28 64.5t28 64.5l38 39q26 26 26 65v477q0 37 27.5 64t65.5 27h73q38 0 65.5 -27 t27.5 -64v-1198q0 -77 -54.5 -131t-130.5 -54h-663q-77 0 -131 54t-54 131v383q0 39 -26 65l-39 40q-27 27 -27 64.5zM372 1704v129q0 19 13.5 33t31.5 14h129q19 0 32.5 -13.5t13.5 -33.5v-129q0 -18 -13.5 -31.5t-32.5 -13.5h-129q-18 0 -31.5 13.5t-13.5 31.5zM721 1704 v129q0 19 13.5 33t33.5 14h129q18 0 31.5 -14t13.5 -33v-129q0 -18 -13.5 -31.5t-31.5 -13.5h-129q-19 0 -33 13.5t-14 31.5z" />
<glyph unicode="&#xfd;" horiz-adv-x="1222" d="M80 1336q-25 46 2 92t79 46h65q53 0 80 -48l305 -551l306 551q24 48 81 48h63q53 0 80.5 -46t0.5 -92l-402 -710v-534q0 -38 -27 -65t-65 -27h-72q-39 0 -66.5 27t-27.5 65v52q0 39 -26 65l-39 40q-27 27 -27 64t27 64l39 40q26 26 26 65v144zM440 1645.5 q-13 23.5 1 47.5l127 202q12 22 39 22h137q29 0 41 -27.5t-8 -50.5l-183 -202q-12 -15 -33 -15h-81q-27 0 -40 23.5z" />
<glyph unicode="&#xfe;" horiz-adv-x="1220" d="M48 737.5q0 37.5 27 64.5l39 39q26 26 26 65v477q0 38 27.5 64.5t66.5 26.5h72q38 0 65 -27t27 -64v-223h516q77 0 131 -53.5t54 -129.5v-480q0 -76 -54 -129.5t-131 -53.5h-516v-222q0 -38 -27 -65t-65 -27h-72q-39 0 -66.5 27t-27.5 65v476q0 39 -26 65l-39 40 q-27 27 -27 64.5zM398 534h396q20 0 33.5 14t13.5 33v312q0 19 -13.5 33t-33.5 14h-396v-406z" />
<glyph unicode="&#xff;" horiz-adv-x="1222" d="M80 1336q-25 46 2 92t79 46h65q53 0 80 -48l305 -551l306 551q24 48 81 48h63q53 0 80.5 -46t0.5 -92l-402 -710v-534q0 -38 -27 -65t-65 -27h-72q-39 0 -66.5 27t-27.5 65v52q0 39 -26 65l-39 40q-27 27 -27 64t27 64l39 40q26 26 26 65v144zM325 1704v129q0 19 13.5 33 t33.5 14h129q19 0 33 -14t14 -33v-129q0 -18 -14 -31.5t-33 -13.5h-129q-19 0 -33 13.5t-14 31.5zM676 1704v129q0 19 13.5 33t31.5 14h129q20 0 33.5 -14t13.5 -33v-129q0 -18 -14 -31.5t-33 -13.5h-129q-18 0 -31.5 13.5t-13.5 31.5z" />
<glyph unicode="&#x152;" horiz-adv-x="1956" d="M48 737.5q0 37.5 27 64.5l39 39q26 26 26 65v383q0 77 54 131t131 54h589h259h608q37 0 64 -27t27 -64v-38q0 -37 -27 -64t-64 -27h-608v-406h535q38 0 64.5 -27t26.5 -66v-36q0 -39 -26.5 -66t-64.5 -27h-535v-406h608q37 0 64 -27t27 -64v-37q0 -38 -27 -65t-64 -27 h-701h-166h-589q-77 0 -131 54t-54 131v383q0 39 -26 65l-39 40q-27 27 -27 64.5zM398 267q0 -19 14 -33t33 -14h424q18 0 31.5 14t13.5 33v301q0 39 -26 65l-38 40q-28 27 -28 64.5t28 64.5l38 39q26 26 26 65v301q0 19 -13.5 33t-31.5 14h-424q-19 0 -33 -14t-14 -33v-940 zM480 736l131 131l129 -131l-129 -129z" />
<glyph unicode="&#x153;" horiz-adv-x="1956" d="M48 737.5q0 37.5 27 64.5l39 39q26 26 26 65v383q0 77 54 131t131 54h589h259h608q37 0 64 -27t27 -64v-38q0 -37 -27 -64t-64 -27h-608v-406h535q38 0 64.5 -27t26.5 -66v-36q0 -39 -26.5 -66t-64.5 -27h-535v-406h608q37 0 64 -27t27 -64v-37q0 -38 -27 -65t-64 -27 h-701h-166h-589q-77 0 -131 54t-54 131v383q0 39 -26 65l-39 40q-27 27 -27 64.5zM398 267q0 -19 14 -33t33 -14h424q18 0 31.5 14t13.5 33v301q0 39 -26 65l-38 40q-28 27 -28 64.5t28 64.5l38 39q26 26 26 65v301q0 19 -13.5 33t-31.5 14h-424q-19 0 -33 -14t-14 -33v-940 zM480 736l131 131l129 -131l-129 -129z" />
<glyph unicode="&#x178;" horiz-adv-x="1222" d="M80 1336q-25 46 2 92t79 46h65q53 0 80 -48l305 -551l306 551q24 48 81 48h63q53 0 80.5 -46t0.5 -92l-402 -710v-534q0 -38 -27 -65t-65 -27h-72q-39 0 -66.5 27t-27.5 65v52q0 39 -26 65l-39 40q-27 27 -27 64t27 64l39 40q26 26 26 65v144zM325 1704v129q0 19 13.5 33 t33.5 14h129q19 0 33 -14t14 -33v-129q0 -18 -14 -31.5t-33 -13.5h-129q-19 0 -33 13.5t-14 31.5zM676 1704v129q0 19 13.5 33t31.5 14h129q20 0 33.5 -14t13.5 -33v-129q0 -18 -14 -31.5t-33 -13.5h-129q-18 0 -31.5 13.5t-13.5 31.5z" />
<glyph unicode="&#x2000;" horiz-adv-x="976" />
<glyph unicode="&#x2001;" horiz-adv-x="1953" />
<glyph unicode="&#x2002;" horiz-adv-x="976" />
<glyph unicode="&#x2003;" horiz-adv-x="1953" />
<glyph unicode="&#x2004;" horiz-adv-x="651" />
<glyph unicode="&#x2005;" horiz-adv-x="488" />
<glyph unicode="&#x2006;" horiz-adv-x="325" />
<glyph unicode="&#x2007;" horiz-adv-x="325" />
<glyph unicode="&#x2008;" horiz-adv-x="244" />
<glyph unicode="&#x2009;" horiz-adv-x="390" />
<glyph unicode="&#x200a;" horiz-adv-x="108" />
<glyph unicode="&#x2010;" horiz-adv-x="852" d="M131 673v129q0 19 13.5 32.5t33.5 13.5h497q18 0 32 -13.5t14 -32.5v-129q0 -19 -14 -33t-32 -14h-497q-20 0 -33.5 14t-13.5 33z" />
<glyph unicode="&#x2011;" horiz-adv-x="852" d="M131 673v129q0 19 13.5 32.5t33.5 13.5h497q18 0 32 -13.5t14 -32.5v-129q0 -19 -14 -33t-32 -14h-497q-20 0 -33.5 14t-13.5 33z" />
<glyph unicode="&#x2012;" horiz-adv-x="852" d="M131 673v129q0 19 13.5 32.5t33.5 13.5h497q18 0 32 -13.5t14 -32.5v-129q0 -19 -14 -33t-32 -14h-497q-20 0 -33.5 14t-13.5 33z" />
<glyph unicode="&#x2013;" horiz-adv-x="997" d="M131 673v129q0 19 13.5 32.5t33.5 13.5h644q18 0 31.5 -13.5t13.5 -32.5v-129q0 -19 -13.5 -33t-31.5 -14h-644q-20 0 -33.5 14t-13.5 33z" />
<glyph unicode="&#x2014;" horiz-adv-x="1220" d="M131 673v129q0 19 13.5 32.5t33.5 13.5h865q19 0 32.5 -13t13.5 -33v-129q0 -20 -13.5 -33.5t-32.5 -13.5h-865q-20 0 -33.5 14t-13.5 33z" />
<glyph unicode="&#x2018;" horiz-adv-x="444" d="M93 1231v197q0 19 13.5 32.5t33.5 13.5h165q19 0 32.5 -13t13.5 -33v-167q0 -18 -13.5 -31.5t-32.5 -13.5h-38l67 -153q13 -23 -0.5 -46t-40.5 -23h-16q-25 0 -36 21l-138 188q-10 15 -10 28z" />
<glyph unicode="&#x2019;" horiz-adv-x="444" d="M93 1261v167q0 19 13.5 32.5t33.5 13.5h165q19 0 32.5 -13t13.5 -33v-197q0 -15 -9 -28l-138 -188q-11 -21 -38 -21h-15q-27 0 -40.5 23t-0.5 46l68 153h-38q-19 0 -33 13.5t-14 31.5z" />
<glyph unicode="&#x201a;" horiz-adv-x="444" d="M93 47v164q0 19 13.5 33t33.5 14h165q19 0 32.5 -13.5t13.5 -33.5v-196q0 -14 -9 -28l-138 -189q-10 -18 -38 -18h-15q-27 0 -40.5 22t-0.5 45l68 153h-38q-20 0 -33.5 14t-13.5 33z" />
<glyph unicode="&#x201c;" horiz-adv-x="796" d="M93 1231v197q0 19 13.5 32.5t33.5 13.5h165q19 0 32.5 -13t13.5 -33v-167q0 -18 -13.5 -31.5t-32.5 -13.5h-38l67 -153q13 -23 -0.5 -46t-40.5 -23h-16q-25 0 -36 21l-138 188q-10 15 -10 28zM445 1231v197q0 20 13.5 33t32.5 13h165q20 0 33.5 -13.5t13.5 -32.5v-167 q0 -18 -14 -31.5t-33 -13.5h-37l67 -153q13 -23 -0.5 -46t-40.5 -23h-15q-27 0 -38 21l-138 188q-9 13 -9 28z" />
<glyph unicode="&#x201d;" horiz-adv-x="796" d="M93 1261v167q0 19 13.5 32.5t33.5 13.5h165q19 0 32.5 -13t13.5 -33v-197q0 -15 -9 -28l-138 -188q-11 -21 -38 -21h-15q-27 0 -40.5 23t-0.5 46l68 153h-38q-19 0 -33 13.5t-14 31.5zM445 1261v167q0 20 13.5 33t32.5 13h165q20 0 33.5 -13.5t13.5 -32.5v-197 q0 -13 -10 -28l-138 -188q-11 -21 -36 -21h-16q-27 0 -40.5 23t0.5 46l66 153h-38q-19 0 -32.5 13.5t-13.5 31.5z" />
<glyph unicode="&#x201e;" horiz-adv-x="796" d="M93 47v164q0 19 13.5 33t33.5 14h165q19 0 32.5 -13.5t13.5 -33.5v-196q0 -14 -9 -28l-138 -189q-10 -18 -38 -18h-15q-27 0 -40.5 22t-0.5 45l68 153h-38q-20 0 -33.5 14t-13.5 33zM445 47v164q0 20 13.5 33.5t32.5 13.5h165q20 0 33.5 -14t13.5 -33v-196q0 -13 -10 -28 l-138 -189q-10 -18 -36 -18h-16q-27 0 -40.5 22t0.5 45l66 153h-38q-19 0 -32.5 13.5t-13.5 33.5z" />
<glyph unicode="&#x2022;" horiz-adv-x="556" d="M131 682v110q0 38 27 65t64 27h111q39 0 66 -27t27 -65v-110q0 -38 -27 -65t-66 -27h-111q-37 0 -64 27t-27 65z" />
<glyph unicode="&#x2026;" horiz-adv-x="1222" d="M93 47v164q0 19 13.5 33t33.5 14h165q19 0 32.5 -13.5t13.5 -33.5v-164q0 -20 -13.5 -33.5t-32.5 -13.5h-165q-20 0 -33.5 14t-13.5 33zM482 47v164q0 19 14 33t33 14h164q19 0 33 -14t14 -33v-164q0 -19 -14 -33t-33 -14h-164q-19 0 -33 14t-14 33zM871 47v164 q0 20 13.5 33.5t32.5 13.5h165q20 0 33.5 -14t13.5 -33v-164q0 -19 -13.5 -33t-33.5 -14h-165q-19 0 -32.5 13.5t-13.5 33.5z" />
<glyph unicode="&#x202f;" horiz-adv-x="390" />
<glyph unicode="&#x205f;" horiz-adv-x="488" />
<glyph unicode="&#x20ac;" horiz-adv-x="1265" d="M47 525v92q0 19 13.5 32.5t32.5 13.5h101v148h-101q-19 0 -32.5 13.5t-13.5 33.5v91q0 18 13.5 31.5t32.5 13.5h101v295q0 77 53.5 131t129.5 54h683q39 0 66 -26.5t27 -64.5v-185q0 -38 -27 -65t-66 -27h-73q-37 0 -64.5 27t-27.5 65v56h-396q-19 0 -33 -14t-14 -33 v-213h286q18 0 31.5 -13.5t13.5 -31.5v-91q0 -19 -13.5 -33t-31.5 -14h-286v-148h286q18 0 31.5 -13.5t13.5 -32.5v-92q0 -19 -13.5 -33t-31.5 -14h-286v-211q0 -19 14 -33t33 -14h396v57q0 37 27 64t65 27h73q39 0 66 -26.5t27 -64.5v-185q0 -38 -27 -65t-66 -27h-683 q-76 0 -129.5 54t-53.5 131v293h-101q-19 0 -32.5 13.5t-13.5 33.5zM893 736l131 131l129 -131l-129 -129z" />
<glyph unicode="&#x25fc;" horiz-adv-x="1476" d="M0 0v1476h1476v-1476h-1476z" />
</font>
</defs>
</svg>
